<svg width="100" height="100" viewBox="0 0 100 100" fill="none" xmlns="http://www.w3.org/2000/svg">
<g opacity="0.6">
<path d="M50.001 13.5C52.0456 13.5 54.0338 14.4497 55.8857 16.248C57.7399 18.0487 59.4329 20.6784 60.8652 23.9668C63.7295 30.5426 65.5137 39.6624 65.5137 49.7617C65.5136 59.8608 63.7295 68.98 60.8652 75.5557C59.4327 78.8443 57.7401 81.4747 55.8857 83.2754C54.0338 85.0737 52.0456 86.0224 50.001 86.0225C47.9564 86.0225 45.9682 85.0737 44.1162 83.2754C42.2618 81.4747 40.5692 78.8443 39.1367 75.5557C36.2725 68.98 34.4883 59.8608 34.4883 49.7617C34.4883 39.6624 36.2724 30.5426 39.1367 23.9668C40.5691 20.6783 42.262 18.0487 44.1162 16.248C45.9682 14.4497 47.9563 13.5 50.001 13.5Z" stroke="#F7CAFF"/>
<path d="M17.8445 33.0007C18.7896 31.1876 20.5507 29.8635 23.0014 29.0524C25.4552 28.2404 28.5696 27.9546 32.1477 28.2044C39.3028 28.7037 48.2147 31.3368 57.1705 36.0048C66.126 40.6726 73.388 46.4697 77.8953 52.0489C80.1496 54.8393 81.6998 57.556 82.4395 60.0327C83.1782 62.5062 83.1005 64.7077 82.1555 66.5209C81.2105 68.334 79.4502 69.6585 76.9995 70.4696C74.5457 71.2817 71.4308 71.567 67.8523 71.3172C60.6973 70.8178 51.7861 68.1851 42.8304 63.5173C33.8746 58.8493 26.6121 53.052 22.1047 47.4726C19.8506 44.6825 18.3012 41.9659 17.5615 39.4893C16.8227 37.0158 16.8995 34.8139 17.8445 33.0007Z" stroke="#F7CAFF"/>
<circle cx="74.2054" cy="69.3675" r="3.93198" fill="url(#paint0_linear_27_759)" stroke="#F7CAFF"/>
<circle cx="58.14" cy="18.3993" r="3.93198" fill="url(#paint1_linear_27_759)" stroke="#F7CAFF"/>
</g>
<path d="M64.4326 24.5V75.5H52.2334V35.3779L37.1533 38.0254L36.5664 38.1289V28.3242L36.9678 28.2432L55.501 24.5098L55.5498 24.5H64.4326Z" fill="url(#paint2_linear_27_759)" stroke="#F7CAFF"/>
<defs>
<linearGradient id="paint0_linear_27_759" x1="69.7734" y1="69.3675" x2="78.6374" y2="69.3675" gradientUnits="userSpaceOnUse">
<stop stop-color="#FF6DCE"/>
<stop offset="1" stop-color="#9236F9"/>
</linearGradient>
<linearGradient id="paint1_linear_27_759" x1="53.708" y1="18.3993" x2="62.572" y2="18.3993" gradientUnits="userSpaceOnUse">
<stop stop-color="#FF6DCE"/>
<stop offset="1" stop-color="#9236F9"/>
</linearGradient>
<linearGradient id="paint2_linear_27_759" x1="37.0664" y1="50" x2="63.9331" y2="50" gradientUnits="userSpaceOnUse">
<stop stop-color="#FF6DCE"/>
<stop offset="1" stop-color="#9236F9"/>
</linearGradient>
</defs>
</svg>
