<svg width="101" height="100" viewBox="0 0 101 100" fill="none" xmlns="http://www.w3.org/2000/svg">
<g opacity="0.6">
<path d="M76.8376 24.8368C78.243 26.3219 78.9198 28.4187 78.8866 30.9999C78.8533 33.5843 78.1069 36.6215 76.703 39.9222C73.8957 46.5225 68.4981 54.0869 61.1628 61.0287C53.8276 67.9704 45.9778 72.9426 39.233 75.3821C35.8598 76.6022 32.7858 77.1808 30.2034 77.0717C27.6242 76.9626 25.5686 76.1707 24.1632 74.6857C22.7578 73.2006 22.0803 71.1044 22.1135 68.5232C22.1467 65.9387 22.8938 62.9013 24.2978 59.6003C27.1051 53.0001 32.5021 45.4361 39.8373 38.4944C47.1726 31.5526 55.0228 26.5798 61.7678 24.1403C65.1408 22.9203 68.2143 22.3424 70.7967 22.4515C73.3759 22.5605 75.4322 23.3517 76.8376 24.8368Z" stroke="#F7CAFF"/>
<path d="M18.3445 33.0007C19.2896 31.1876 21.0507 29.8635 23.5014 29.0524C25.9552 28.2404 29.0696 27.9546 32.6477 28.2044C39.8028 28.7037 48.7147 31.3368 57.6705 36.0048C66.626 40.6726 73.888 46.4697 78.3953 52.0489C80.6496 54.8393 82.1998 57.556 82.9395 60.0327C83.6782 62.5062 83.6005 64.7077 82.6555 66.5209C81.7105 68.334 79.9502 69.6585 77.4995 70.4696C75.0457 71.2817 71.9308 71.567 68.3523 71.3172C61.1973 70.8178 52.2861 68.1851 43.3304 63.5173C34.3746 58.8493 27.1121 53.052 22.6047 47.4726C20.3506 44.6825 18.8012 41.9659 18.0615 39.4893C17.3227 37.0158 17.3995 34.8139 18.3445 33.0007Z" stroke="#F7CAFF"/>
<circle cx="78.932" cy="54.432" r="3.93198" fill="url(#paint0_linear_27_773)" stroke="#F7CAFF"/>
<circle cx="18.932" cy="32.432" r="3.93198" fill="url(#paint1_linear_27_773)" stroke="#F7CAFF"/>
</g>
<path d="M51.1777 24.5C55.5336 24.5 59.3687 25.1825 62.6709 26.5625L63.2812 26.8193C66.2928 28.1379 68.6858 29.9556 70.4404 32.2803L70.7812 32.752C72.4317 35.1326 73.2538 37.87 73.2539 40.9473C73.2539 43.3193 72.6845 45.5375 71.5459 47.5928L71.3105 48.001C70.019 50.1638 67.9657 52.3223 65.1797 54.4805L65.1787 54.4814C62.4375 56.5945 58.7954 58.8722 54.2627 61.3184L54.2637 61.3193L46.6777 65.5459H74.6113V75.5H27.0996V66.8721L27.3447 66.7266L48.0811 54.4395L48.084 54.4375L49.3379 53.7002C52.1788 52.0136 54.4354 50.5489 56.1123 49.3047C58.0265 47.8408 59.3519 46.5102 60.125 45.3164C60.8934 44.1298 61.2724 42.8729 61.2725 41.5361C61.2725 40.1954 60.9366 39.013 60.2715 37.9746L60.1348 37.7695C59.3841 36.6902 58.2442 35.8288 56.6777 35.2031L56.6729 35.2012C55.1595 34.5805 53.2052 34.2578 50.79 34.2578C47.9503 34.2579 45.6611 34.6876 43.8975 35.5176L43.8887 35.5215C42.1081 36.3175 40.7896 37.3942 39.9033 38.7393C39.0449 40.1071 38.5327 41.6196 38.3682 43.2842L38.3232 43.7354H26.3525L26.3896 43.2012C26.6378 39.6019 27.742 36.4556 29.71 33.7793L30.1152 33.25C32.3258 30.4331 35.2391 28.2713 38.8398 26.7607H38.8418L39.5312 26.4863C43.0029 25.1594 46.8873 24.5 51.1777 24.5Z" fill="url(#paint2_linear_27_773)" stroke="#F7CAFF"/>
<defs>
<linearGradient id="paint0_linear_27_773" x1="74.5" y1="54.432" x2="83.364" y2="54.432" gradientUnits="userSpaceOnUse">
<stop stop-color="#FF6DCE"/>
<stop offset="1" stop-color="#9236F9"/>
</linearGradient>
<linearGradient id="paint1_linear_27_773" x1="14.5" y1="32.432" x2="23.364" y2="32.432" gradientUnits="userSpaceOnUse">
<stop stop-color="#FF6DCE"/>
<stop offset="1" stop-color="#9236F9"/>
</linearGradient>
<linearGradient id="paint2_linear_27_773" x1="26.8887" y1="50" x2="74.1109" y2="50" gradientUnits="userSpaceOnUse">
<stop stop-color="#FF6DCE"/>
<stop offset="1" stop-color="#9236F9"/>
</linearGradient>
</defs>
</svg>
