<svg width="101" height="100" viewBox="0 0 101 100" fill="none" xmlns="http://www.w3.org/2000/svg">
<g opacity="0.6">
<path d="M76.8376 24.8368C78.243 26.3219 78.9198 28.4187 78.8866 30.9999C78.8533 33.5843 78.1069 36.6215 76.703 39.9222C73.8957 46.5225 68.4981 54.0869 61.1628 61.0287C53.8276 67.9704 45.9778 72.9426 39.233 75.3821C35.8598 76.6022 32.7858 77.1808 30.2034 77.0717C27.6242 76.9626 25.5686 76.1707 24.1632 74.6857C22.7578 73.2006 22.0803 71.1044 22.1135 68.5232C22.1467 65.9387 22.8938 62.9013 24.2978 59.6003C27.1051 53.0001 32.5021 45.4361 39.8373 38.4944C47.1726 31.5526 55.0228 26.5798 61.7678 24.1403C65.1408 22.9203 68.2143 22.3424 70.7967 22.4515C73.3759 22.5605 75.4322 23.3517 76.8376 24.8368Z" stroke="#F7CAFF"/>
<path d="M37.697 15.8347C39.61 15.1129 41.8054 15.2994 44.173 16.328C46.5436 17.3581 49.0559 19.2207 51.5571 21.7916C56.5586 26.9326 61.4478 34.8352 65.0136 44.284C68.5792 53.7327 70.1296 62.8945 69.7716 70.058C69.5925 73.6406 68.9375 76.6992 67.8384 79.0386C66.7406 81.375 65.2154 82.9646 63.3025 83.6865C61.3896 84.4084 59.1944 84.2227 56.8268 83.1941C54.4561 82.1641 51.9438 80.3008 49.4424 77.7297C44.441 72.5887 39.552 64.6868 35.9863 55.2381C32.4205 45.7892 30.8698 36.6269 31.228 29.4633C31.4071 25.8808 32.0624 22.8229 33.1615 20.4835C34.2593 18.1471 35.784 16.5566 37.697 15.8347Z" stroke="#F7CAFF"/>
<circle cx="22.932" cy="73.432" r="3.93198" fill="url(#paint0_linear_27_787)" stroke="#F7CAFF"/>
<circle cx="38.5144" cy="15.8024" r="3.93198" transform="rotate(41.7954 38.5144 15.8024)" fill="url(#paint1_linear_27_787)" stroke="#F7CAFF"/>
</g>
<path d="M51.9746 24.5C56.3316 24.5 60.1291 25.0611 63.3574 26.1953L63.9541 26.4121C66.8933 27.5255 69.2296 29.0331 70.9375 30.9492L71.2705 31.3398C72.8842 33.3163 73.6924 35.6332 73.6924 38.2695C73.6923 40.5578 72.9932 42.6472 71.6074 44.5254L71.6084 44.5264C70.2537 46.3777 68.1545 47.8366 65.3613 48.9277L65.3545 48.9297C65.2108 48.9836 65.0645 49.034 64.917 49.085C65.0532 49.1226 65.1885 49.1603 65.3223 49.2002H65.3213C68.2897 50.0307 70.6226 51.3525 72.2812 53.1904L72.585 53.5439C74.0555 55.3383 74.7822 57.5432 74.7822 60.1279C74.7822 63.1082 73.8225 65.7835 71.9141 68.1357L71.9131 68.1348C70.1641 70.2999 67.672 72.0154 64.4658 73.2959L63.8145 73.5459C60.2819 74.8542 56.0101 75.5 51.0127 75.5C46.4424 75.5 42.4017 74.8934 38.8994 73.6689L38.2061 73.416C34.7795 72.1106 32.0358 70.2983 29.9971 67.9678L29.5986 67.4941C27.5203 64.9294 26.3949 61.921 26.2188 58.4873L26.1914 57.9619H38.0527L38.1104 58.3955C38.4322 60.8092 39.6281 62.644 41.7236 63.9336L42.1299 64.1689C44.2214 65.3135 47.1664 65.9102 51.0127 65.9102C54.9933 65.9102 57.9195 65.2933 59.8564 64.123L60.2041 63.9014C61.8835 62.7672 62.6923 61.2634 62.6924 59.3594C62.6924 58.2015 62.4133 57.2505 61.8789 56.4805L61.7686 56.3291C61.1806 55.5574 60.1287 54.9358 58.5166 54.5225L58.5088 54.5205L58.502 54.5186C56.9434 54.0674 54.7748 53.833 51.9746 53.833H43.0127V45.2051H51.9746C55.6257 45.205 58.1216 44.6476 59.5713 43.6289L59.8369 43.4336C61.1196 42.4389 61.7305 41.2157 61.7305 39.7432C61.7304 38.078 61.0334 36.779 59.583 35.8115L59.2822 35.6221C57.6028 34.6225 54.9978 34.0899 51.3975 34.0898C47.73 34.0898 44.9298 34.7442 42.9463 35.999L42.9404 36.0029C40.9698 37.2095 39.7924 38.9444 39.3896 41.2402L39.3174 41.6543H27.4561L27.502 41.1113C27.7666 37.9804 28.8712 35.1546 30.8096 32.6436L30.8125 32.6387L31.1943 32.1729C33.1518 29.8767 35.8146 28.0618 39.1592 26.7158C42.7383 25.2327 47.015 24.5 51.9746 24.5Z" fill="url(#paint2_linear_27_787)" stroke="#F7CAFF"/>
<defs>
<linearGradient id="paint0_linear_27_787" x1="18.5" y1="73.432" x2="27.364" y2="73.432" gradientUnits="userSpaceOnUse">
<stop stop-color="#FF6DCE"/>
<stop offset="1" stop-color="#9236F9"/>
</linearGradient>
<linearGradient id="paint1_linear_27_787" x1="34.0825" y1="15.8024" x2="42.9464" y2="15.8024" gradientUnits="userSpaceOnUse">
<stop stop-color="#FF6DCE"/>
<stop offset="1" stop-color="#9236F9"/>
</linearGradient>
<linearGradient id="paint2_linear_27_787" x1="26.7178" y1="50" x2="74.2819" y2="50" gradientUnits="userSpaceOnUse">
<stop stop-color="#FF6DCE"/>
<stop offset="1" stop-color="#9236F9"/>
</linearGradient>
</defs>
</svg>
