<svg width="101" height="100" viewBox="0 0 101 100" fill="none" xmlns="http://www.w3.org/2000/svg">
<g opacity="0.6">
<path d="M86.6719 47.2079C86.8158 49.2474 86.0085 51.2975 84.345 53.2715C82.6794 55.2479 80.1755 57.1218 76.9961 58.7822C70.6383 62.1025 61.6668 64.5244 51.5926 65.2357C41.5186 65.9468 32.2964 64.8092 25.5353 62.4152C22.1539 61.2179 19.4109 59.7147 17.4841 57.9917C15.5598 56.271 14.4735 54.3546 14.3294 52.315C14.1855 50.2755 14.9919 48.2254 16.6553 46.2514C18.3209 44.2748 20.8255 42.4012 24.0052 40.7406C30.3629 37.4204 39.3337 34.9985 49.4077 34.2873C59.482 33.5761 68.7048 34.7135 75.466 37.1077C78.8472 38.3049 81.5895 39.8084 83.5162 41.5312C85.4405 43.252 86.5279 45.1683 86.6719 47.2079Z" stroke="#F7CAFF"/>
<path d="M57.68 14.2134C59.6836 14.6207 61.4427 15.9475 62.8993 18.0787C64.3576 20.2127 65.4926 23.1269 66.2412 26.6348C67.7379 33.6494 67.6694 42.9419 65.6573 52.8387C63.6453 62.7353 60.0801 71.3162 55.9632 77.1895C53.9043 80.1268 51.7215 82.3673 49.5456 83.7624C47.3724 85.1557 45.2351 85.6893 43.2315 85.282C41.2279 84.8746 39.4686 83.5488 38.012 81.4176C36.5535 79.2836 35.4189 76.3687 34.6703 72.8605C33.1735 65.846 33.2419 56.5543 35.2539 46.6576C37.266 36.7607 40.8313 28.1792 44.9482 22.3059C47.0071 19.3687 49.1899 17.129 51.3657 15.7339C53.5389 14.3406 55.6763 13.806 57.68 14.2134Z" stroke="#F7CAFF"/>
<circle cx="14.173" cy="50.5648" r="3.93198" transform="rotate(39.3831 14.173 50.5648)" fill="url(#paint0_linear_27_801)" stroke="#F7CAFF"/>
<circle cx="58.3888" cy="14.6211" r="3.93198" transform="rotate(73.9624 58.3888 14.6211)" fill="url(#paint1_linear_27_801)" stroke="#F7CAFF"/>
</g>
<path d="M68.3662 24.5V55.9004H76.8994V65.5664H68.3662V75.5H56.166V65.5664H24.0996V56.874L24.2285 56.7314L53.1621 24.665L53.3105 24.5H68.3662ZM37.6963 55.9004H56.166V35.4482L37.6963 55.9004Z" fill="url(#paint2_linear_27_801)" stroke="#F7CAFF"/>
<defs>
<linearGradient id="paint0_linear_27_801" x1="9.74106" y1="50.5648" x2="18.605" y2="50.5648" gradientUnits="userSpaceOnUse">
<stop stop-color="#FF6DCE"/>
<stop offset="1" stop-color="#9236F9"/>
</linearGradient>
<linearGradient id="paint1_linear_27_801" x1="53.9568" y1="14.6211" x2="62.8207" y2="14.6211" gradientUnits="userSpaceOnUse">
<stop stop-color="#FF6DCE"/>
<stop offset="1" stop-color="#9236F9"/>
</linearGradient>
<linearGradient id="paint2_linear_27_801" x1="24.5996" y1="50" x2="76.3996" y2="50" gradientUnits="userSpaceOnUse">
<stop stop-color="#FF6DCE"/>
<stop offset="1" stop-color="#9236F9"/>
</linearGradient>
</defs>
</svg>
