<svg width="443" height="71" viewBox="0 0 443 71" fill="none" xmlns="http://www.w3.org/2000/svg">
<path d="M0.333333 68C0.333333 69.4728 1.52724 70.6667 3 70.6667C4.47276 70.6667 5.66667 69.4728 5.66667 68C5.66667 66.5272 4.47276 65.3333 3 65.3333C1.52724 65.3333 0.333333 66.5272 0.333333 68ZM442.252 1.43166C442.491 1.29231 442.571 0.986082 442.432 0.74768C442.292 0.509278 441.986 0.428983 441.748 0.568335L442.252 1.43166ZM327.378 68V68.5H327.513L327.63 68.4317L327.378 68ZM3 68.5H327.378V67.5H3V68.5ZM327.63 68.4317L442.252 1.43166L441.748 0.568335L327.125 67.5683L327.63 68.4317Z" fill="url(#paint0_linear_287_202)"/>
<defs>
<linearGradient id="paint0_linear_287_202" x1="291.605" y1="68" x2="404.128" y2="-38.8755" gradientUnits="userSpaceOnUse">
<stop stop-color="white"/>
<stop offset="1" stop-color="white" stop-opacity="0"/>
</linearGradient>
</defs>
</svg>
