<svg width="119" height="120" viewBox="0 0 119 120" fill="none" xmlns="http://www.w3.org/2000/svg">
<path d="M118.875 49.2048V110.379C118.872 112.764 117.924 115.051 116.237 116.737C114.55 118.424 112.264 119.372 109.879 119.375H9.12125C6.73615 119.372 4.44953 118.424 2.76301 116.737C1.07649 115.051 0.127779 112.764 0.125 110.379V49.2048C0.127779 46.8197 1.07649 44.533 2.76301 42.8465C4.44953 41.16 6.73615 40.2113 9.12125 40.2085H23.5152V43.807H9.12125C7.69015 43.8085 6.31809 44.3777 5.30615 45.3897C4.2942 46.4016 3.72502 47.7737 3.7235 49.2048V110.379C3.72502 111.81 4.29417 113.182 5.30606 114.194C6.31795 115.206 7.68994 115.775 9.121 115.777H109.879C111.31 115.775 112.682 115.206 113.694 114.194C114.706 113.182 115.275 111.81 115.276 110.379V49.2045C115.275 47.7735 114.706 46.4015 113.694 45.3896C112.682 44.3777 111.31 43.8085 109.879 43.807H95.4847V40.2083H109.879C112.264 40.211 114.55 41.1597 116.237 42.8463C117.924 44.5328 118.872 46.8197 118.875 49.2048ZM107.05 49.528L59.5 82.6788L11.95 49.528L9.89075 52.48L39.8575 73.372L9.57625 107.383L12.2647 109.776L42.831 75.4453L58.4702 86.3488C58.7724 86.5593 59.1318 86.6721 59.5 86.6721C59.8682 86.6721 60.2276 86.5593 60.5297 86.3488L76.169 75.4453L106.735 109.777L109.424 107.384L79.1425 73.372L109.109 52.48L107.05 49.528ZM32.5115 110.379H39.7082V106.781H32.5115V110.379ZM86.4887 106.781H43.3065V110.379H86.4883L86.4887 106.781ZM75.6933 99.5835H32.5112V103.182H75.6933V99.5835ZM86.4885 99.5835H79.2917V103.182H86.4887L86.4885 99.5835ZM27.1135 33.0115C27.1135 26.6061 29.0129 20.3445 32.5716 15.0185C36.1303 9.69261 41.1884 5.54155 47.1062 3.09029C53.0241 0.639033 59.5359 -0.00232816 65.8183 1.24731C72.1007 2.49695 77.8714 5.58147 82.4007 10.1108C86.93 14.6401 90.0146 20.4109 91.2642 26.6932C92.5138 32.9756 91.8725 39.4874 89.4212 45.4053C86.97 51.3231 82.8189 56.3812 77.493 59.9399C72.167 63.4986 65.9054 65.398 59.5 65.398C50.9136 65.3882 42.6817 61.973 36.6102 55.9015C30.5387 49.83 27.1234 41.5981 27.1135 33.0118V33.0115ZM30.7122 33.0115C30.7122 38.7052 32.4005 44.271 35.5637 49.0052C38.7269 53.7394 43.223 57.4292 48.4832 59.6081C53.7435 61.787 59.5318 62.3571 65.1161 61.2464C70.7003 60.1356 75.8299 57.3939 79.8559 53.3679C83.882 49.3418 86.6238 44.2123 87.7346 38.6281C88.8454 33.0438 88.2753 27.2555 86.0964 21.9952C83.9176 16.7349 80.2278 12.2389 75.4936 9.07564C70.7595 5.91239 65.1937 4.22401 59.5 4.22401C51.8677 4.23281 44.5505 7.26863 39.1537 12.6655C33.7569 18.0623 30.7211 25.3795 30.7122 33.0118V33.0115ZM53.8073 49.6503L37.614 35.2563C37.2895 34.9679 37.0802 34.5719 37.0246 34.1413C36.969 33.7108 37.0709 33.2746 37.3115 32.9133L40.9103 27.5155C41.0513 27.3037 41.2357 27.1242 41.4514 26.9889C41.667 26.8536 41.9088 26.7657 42.161 26.7309C42.4131 26.6961 42.6698 26.7152 42.9139 26.787C43.1581 26.8587 43.3843 26.9816 43.5775 27.1473L54.8507 36.8105L73.467 16.5023C73.7577 16.1865 74.1514 15.9847 74.5775 15.9331C75.0036 15.8815 75.4342 15.9836 75.7917 16.221L81.1892 19.8195C81.4062 19.9644 81.5891 20.1546 81.7252 20.3771C81.8614 20.5996 81.9476 20.8491 81.9778 21.1082C82.008 21.3672 81.9816 21.6298 81.9004 21.8777C81.8191 22.1256 81.685 22.3528 81.5072 22.5438L56.318 49.5328C55.9976 49.8763 55.5557 50.0809 55.0865 50.1029C54.6173 50.1249 54.1581 49.9625 53.807 49.6505L53.8073 49.6503ZM41.1738 33.6065L54.8843 45.7935L77.4293 21.638L75.0782 20.07L56.3285 40.525C56.013 40.8689 55.5763 41.0768 55.1105 41.1048C54.6446 41.1328 54.1861 40.9787 53.8317 40.675L42.778 31.201L41.1738 33.6065Z" fill="#C8D8FF"/>
</svg>
