<svg width="54" height="54" viewBox="0 0 54 54" fill="none" xmlns="http://www.w3.org/2000/svg">
<circle cx="27" cy="27" r="27" fill="white"/>
<rect x="12.3125" y="19.1914" width="29.3863" height="17.3691" rx="2.5" fill="#C8D8FF" stroke="#9236F9"/>
<path d="M28.042 32.6103C27.497 33.137 26.6528 33.1707 26.0703 32.71L25.958 32.6103L13.585 20.6543C12.6151 19.7171 13.2783 18.0753 14.627 18.0752L39.373 18.0752C40.6798 18.0753 41.3431 19.6161 40.501 20.5645L40.415 20.6543L28.042 32.6103Z" fill="#C8D8FF" stroke="#9236F9"/>
<path d="M20.9023 33.0059C21.0072 33.3044 21.133 33.6135 21.2871 33.9229C21.7327 34.8172 22.4091 35.7275 23.4326 36.415C23.8036 36.6642 24.2163 36.8814 24.6748 37.0576C24.2161 37.2339 23.8027 37.4509 23.4316 37.7002C22.4083 38.3877 21.7326 39.2982 21.2871 40.1924C21.1332 40.5013 21.0061 40.8093 20.9014 41.1074C20.7966 40.8095 20.6713 40.5011 20.5176 40.1924C20.0721 39.2981 19.3955 38.3877 18.3721 37.7002C18.0009 37.4509 17.5878 37.2339 17.1289 37.0576C17.5878 36.8813 18.0009 36.6644 18.3721 36.415C19.3955 35.7275 20.0721 34.8172 20.5176 33.9229C20.6717 33.6135 20.7975 33.3044 20.9023 33.0059Z" fill="#C8D8FF" stroke="#9236F9"/>
<path d="M33.5938 13.6436C33.6986 13.9421 33.8244 14.2512 33.9785 14.5605C34.4241 15.4549 35.1005 16.3652 36.124 17.0527C36.495 17.3019 36.9077 17.5191 37.3662 17.6953C36.9075 17.8716 36.4941 18.0886 36.123 18.3379C35.0998 19.0254 34.424 19.9359 33.9785 20.8301C33.8246 21.139 33.6976 21.447 33.5928 21.7451C33.4881 21.4472 33.3627 21.1388 33.209 20.8301C32.7635 19.9358 32.0869 19.0254 31.0635 18.3379C30.6923 18.0886 30.2792 17.8716 29.8203 17.6953C30.2792 17.519 30.6923 17.3021 31.0635 17.0527C32.0869 16.3652 32.7635 15.4549 33.209 14.5605C33.3631 14.2512 33.4889 13.9421 33.5938 13.6436Z" fill="#C8D8FF" stroke="#9236F9"/>
<path d="M42.2054 34.6558L34.1367 27.6172" stroke="#9236F9"/>
</svg>
