<svg width="54" height="54" viewBox="0 0 54 54" fill="none" xmlns="http://www.w3.org/2000/svg">
<circle cx="27" cy="27" r="27" fill="white"/>
<rect x="13.5" y="13.5" width="27" height="24" fill="#C8D8FF" stroke="#9236F9"/>
<rect x="15.1484" y="15.6738" width="23.8546" height="16.6997" fill="#C8D8FF" stroke="#9236F9"/>
<path d="M26.8193 38.1934H27.3916C28.1469 38.1934 28.8219 38.6484 29.1104 39.3359L29.1631 39.4766C29.5585 40.682 28.6603 41.9219 27.3916 41.9219H26.8193C25.6168 41.9217 24.751 40.8091 24.9951 39.6719L25.0596 39.4443C25.3205 38.6955 26.0264 38.1935 26.8193 38.1934Z" fill="#C8D8FF" stroke="#9236F9"/>
<rect x="20.9789" y="41.4066" width="12.1955" height="1.41017" rx="0.705085" fill="#C8D8FF" stroke="#9236F9" stroke-width="0.7"/>
<path d="M33.7635 24.4744L33.7695 24.5894L33.862 24.6582L35.1841 25.6603L33.5282 25.7612L33.4131 25.7672L33.3443 25.8596L32.3423 27.1817L32.2414 25.5258L32.2354 25.4108L32.143 25.342L30.8199 24.3396L32.4767 24.239L32.5918 24.233L32.6606 24.1406L33.6629 22.8176L33.7635 24.4744Z" fill="#C8D8FF" stroke="#9236F9" stroke-width="0.5"/>
</svg>
