<svg width="54" height="54" viewBox="0 0 54 54" fill="none" xmlns="http://www.w3.org/2000/svg">
<circle cx="27" cy="27" r="27" fill="white"/>
<rect x="16.6915" y="33.4961" width="27.6924" height="5.12746" transform="rotate(-45 16.6915 33.4961)" fill="#C8D8FF" stroke="#9236F9"/>
<rect x="34.3204" y="15.8691" width="2.76468" height="5.12746" transform="rotate(-45 34.3204 15.8691)" fill="#C8D8FF" stroke="#9236F9"/>
<rect x="37.2735" y="13.9971" width="1.82328" height="3.85867" transform="rotate(-45 37.2735 13.9971)" fill="#C8D8FF" stroke="#9236F9"/>
<path d="M16.2643 34.2117L19.601 37.5484L13.5181 40.2946L16.2643 34.2117Z" fill="#C8D8FF" stroke="#9236F9"/>
<path d="M14.1984 38.7878L15.0243 39.6137L13.5183 40.2939L14.1984 38.7878Z" fill="#C8D8FF" stroke="#9236F9"/>
<path d="M22.9967 23.1719C23.1058 23.2163 23.2182 23.2594 23.3344 23.2983C24.031 23.5316 24.8606 23.6552 25.7568 23.4792C25.9786 23.4356 26.2023 23.3735 26.4273 23.2921C26.3457 23.5174 26.2838 23.7418 26.2402 23.9639C26.0643 24.86 26.1885 25.6891 26.4218 26.3856C26.4606 26.5015 26.5032 26.6138 26.5474 26.7226C26.4387 26.6784 26.3269 26.635 26.2112 26.5963C25.5146 26.3629 24.6849 26.2394 23.7888 26.4153C23.5665 26.459 23.3423 26.5208 23.1169 26.6025C23.1985 26.3772 23.2611 26.1534 23.3047 25.9313C23.4807 25.0351 23.3571 24.2055 23.1238 23.5089C23.0849 23.3928 23.0411 23.2809 22.9967 23.1719Z" fill="#C8D8FF" stroke="#9236F9"/>
</svg>
