<svg width="54" height="54" viewBox="0 0 54 54" fill="none" xmlns="http://www.w3.org/2000/svg">
<circle cx="27" cy="27" r="27" fill="white"/>
<path d="M29.6982 20.7393C30.3584 20.7393 30.9912 21.0019 31.458 21.4688C31.9248 21.9356 32.1874 22.5684 32.1875 23.2285C32.1875 23.8888 31.9249 24.5224 31.458 24.9893C30.9912 25.456 30.3583 25.7187 29.6982 25.7188H25.5V21.0107L25.501 20.7402L25.7715 20.7393H29.6982Z" fill="#C8D8FF" stroke="#9236F9"/>
<path d="M27.083 10.917C36.2419 10.917 43.6668 18.3412 43.667 27.5C43.667 36.659 36.242 44.084 27.083 44.084C17.9242 44.0838 10.5 36.6589 10.5 27.5C10.5002 18.3413 17.9243 10.9172 27.083 10.917ZM25.6504 17.1777C25.4709 17.1777 25.2577 17.1767 25.043 17.1953L24.8291 17.2207H24.8281C24.1008 17.3362 23.4289 17.6795 22.9082 18.2002C22.4525 18.6559 22.1335 19.2275 21.9834 19.8506L21.9287 20.1201V20.1211C21.884 20.4042 21.8857 20.7025 21.8857 20.9434V25.7217C21.4985 25.7375 21.1275 25.8776 20.8291 26.1221L20.6992 26.2412C20.3652 26.5752 20.1768 27.0277 20.1768 27.5C20.1768 27.9132 20.3206 28.312 20.5801 28.6289L20.6992 28.7598C20.9121 28.9726 21.1734 29.1247 21.457 29.208C21.2287 29.275 21.0148 29.3869 20.8291 29.5391L20.6992 29.6572C20.3652 29.9913 20.1768 30.4446 20.1768 30.917C20.1768 31.3303 20.3205 31.729 20.5801 32.0459L20.6992 32.1768C21.0161 32.4934 21.4399 32.6761 21.8857 32.6943V36.042C21.8857 36.4554 22.0293 36.8539 22.2891 37.1709L22.4072 37.3018C22.7413 37.6357 23.1947 37.8232 23.667 37.8232C24.0803 37.8232 24.479 37.6797 24.7959 37.4199L24.9258 37.3018C25.2598 36.9677 25.4482 36.5144 25.4482 36.042V32.6982H27.083C27.5553 32.6982 28.0087 32.5107 28.3428 32.1768C28.6768 31.8427 28.8643 31.3894 28.8643 30.917C28.8643 30.5036 28.7207 30.1051 28.4609 29.7881L28.3428 29.6572C28.1812 29.4957 27.9912 29.3696 27.7852 29.2812H29.6455C31.1504 29.2812 32.5978 28.7212 33.708 27.7158L33.9258 27.5088C35.0606 26.3738 35.6982 24.8345 35.6982 23.2295C35.6982 21.6245 35.0606 20.0851 33.9258 18.9502C32.7908 17.8152 31.2506 17.1777 29.6455 17.1777H25.6504Z" fill="#C8D8FF" stroke="#9236F9"/>
</svg>
