<svg width="54" height="54" viewBox="0 0 54 54" fill="none" xmlns="http://www.w3.org/2000/svg">
<circle cx="27" cy="27" r="27" fill="white"/>
<path d="M18.8623 12.2695L18.9424 12.4844L19.1572 12.5645L20.748 13.1533L19.1572 13.7422L18.9424 13.8223L18.8623 14.0371L18.2734 15.6279L17.6846 14.0371L17.6045 13.8223L17.3896 13.7422L15.7979 13.1533L17.3896 12.5645L17.6045 12.4844L17.6846 12.2695L18.2734 10.6777L18.8623 12.2695Z" fill="#C8D8FF" stroke="#9236F9"/>
<path d="M24.5819 15.3954C24.5819 17.07 21.1004 21.632 19.3581 21.632H14.3584V37.3199C15.3432 37.5713 17.6141 37.3199 19.3581 37.3199H21.1004C24.2316 38.2501 31.1605 39.5524 33.827 37.3199L31.2304 19.9529C30.5972 19.4732 29.5683 18.0819 30.5181 16.3549C31.4679 14.6278 30.6764 11.3279 30.5181 9.48895C30.3947 8.05592 28.1911 7 26.4815 7C24.7719 7 24.5028 8.11939 24.5819 8.67908V15.3954Z" fill="#C8D8FF" stroke="#9236F9"/>
<rect x="40.9355" y="20.2549" width="4.59443" height="12.2028" rx="2.29721" transform="rotate(90 40.9355 20.2549)" fill="#C8D8FF" stroke="#9236F9"/>
<rect x="41.6064" y="33.6816" width="4.37065" height="11.3077" rx="2.18533" transform="rotate(90 41.6064 33.6816)" fill="#C8D8FF" stroke="#9236F9"/>
<rect x="42.502" y="24.7305" width="4.37065" height="15.1119" rx="2.18533" transform="rotate(90 42.502 24.7305)" fill="#C8D8FF" stroke="#9236F9"/>
<rect x="42.502" y="29.2061" width="4.37065" height="13.7693" rx="2.18533" transform="rotate(90 42.502 29.2061)" fill="#C8D8FF" stroke="#9236F9"/>
<path d="M20.1749 37.2101C20.4503 30.0492 14.8042 25.4618 11 24.9023V28.259C13.387 28.5574 17.9371 30.9869 17.9371 38.329C17.9371 44.8185 23.3823 47.653 26.2168 47.7276V44.8185C26.2168 44.8185 19.8994 44.3709 20.1749 37.2101Z" fill="#C8D8FF" stroke="#9236F9"/>
</svg>
