<svg width="6" height="418" viewBox="0 0 6 418" fill="none" xmlns="http://www.w3.org/2000/svg">
<path d="M3 0.33431C1.52724 0.33431 0.333333 1.52822 0.333333 3.00098C0.333333 4.47374 1.52724 5.66764 3 5.66764C4.47276 5.66764 5.66667 4.47374 5.66667 3.00098C5.66667 1.52822 4.47276 0.33431 3 0.33431ZM2.99997 412.334C1.52721 412.334 0.333303 413.528 0.333303 415.001C0.333303 416.474 1.52721 417.668 2.99997 417.668C4.47273 417.668 5.66664 416.474 5.66664 415.001C5.66664 413.528 4.47273 412.334 2.99997 412.334ZM3 3.00098L2.5 3.00098L2.49997 415.001L2.99997 415.001L3.49997 415.001L3.5 3.00098L3 3.00098Z" fill="white"/>
</svg>
