<svg width="6" height="186" viewBox="0 0 6 186" fill="none" xmlns="http://www.w3.org/2000/svg">
<path d="M2.75 0.33431C1.27724 0.33431 0.0833335 1.52822 0.0833333 3.00098C0.083333 4.47374 1.27724 5.66764 2.75 5.66764C4.22276 5.66764 5.41667 4.47374 5.41667 3.00098C5.41667 1.52822 4.22276 0.33431 2.75 0.33431ZM2.74997 180.334C1.27721 180.334 0.0833029 181.528 0.0833027 183.001C0.0833024 184.474 1.27721 185.668 2.74997 185.668C4.22273 185.668 5.41664 184.474 5.41664 183.001C5.41664 181.528 4.22273 180.334 2.74997 180.334ZM2.75 3.00098L2.25 3.00098L2.24997 183.001L2.74997 183.001L3.24997 183.001L3.25 3.00098L2.75 3.00098Z" fill="white"/>
</svg>
