<svg width="6" height="528" viewBox="0 0 6 528" fill="none" xmlns="http://www.w3.org/2000/svg">
<path d="M3 0.333333C1.52724 0.333333 0.333333 1.52724 0.333333 3C0.333333 4.47276 1.52724 5.66667 3 5.66667C4.47276 5.66667 5.66667 4.47276 5.66667 3C5.66667 1.52724 4.47276 0.333333 3 0.333333ZM2.99996 522.333C1.5272 522.333 0.333295 523.527 0.333295 525C0.333294 526.473 1.5272 527.667 2.99996 527.667C4.47272 527.667 5.66663 526.473 5.66663 525C5.66663 523.527 4.47272 522.333 2.99996 522.333ZM3 3L2.5 3L2.49996 525L2.99996 525L3.49996 525L3.5 3L3 3Z" fill="white"/>
</svg>
