<svg width="84" height="30" viewBox="0 0 84 30" fill="none" xmlns="http://www.w3.org/2000/svg">
<g clip-path="url(#clip0_2481_1926)">
<path fill-rule="evenodd" clip-rule="evenodd" d="M35.2703 7.19782L29.7765 10.9034C29.635 10.999 29.5499 11.1586 29.5499 11.3294V18.0581C29.5499 18.3417 29.7801 18.5718 30.0637 18.5718C30.1661 18.5718 30.2661 18.5411 30.3511 18.4839L35.8449 14.7783C35.9864 14.6828 36.0713 14.5231 36.0713 14.3524V7.62369C36.0713 7.33981 35.8413 7.10994 35.5576 7.10994C35.4551 7.10994 35.3552 7.1405 35.2703 7.1977V7.19782ZM19.2738 5.59769V29.3077C19.2738 29.5915 19.5038 29.8215 19.7876 29.8215C19.89 29.8215 19.99 29.7909 20.0749 29.7336L27.3472 24.8283C27.4888 24.7327 27.5737 24.5732 27.5737 24.4023V0.692282C27.5737 0.408521 27.3437 0.178528 27.0599 0.178528C26.9576 0.178528 26.8574 0.209084 26.7726 0.266404L19.5002 5.1717C19.3587 5.26715 19.2737 5.4268 19.2737 5.59758L19.2738 5.59769ZM8.99766 5.59769V29.3077C8.99766 29.5915 9.22765 29.8215 9.51141 29.8215C9.61386 29.8215 9.71381 29.7909 9.79873 29.7336L17.0711 24.8283C17.2126 24.7327 17.2975 24.5732 17.2975 24.4023V0.692282C17.2975 0.408521 17.0675 0.178528 16.7838 0.178528C16.6815 0.178528 16.5813 0.209084 16.4965 0.266404L9.2241 5.1717C9.08258 5.26715 8.99754 5.4268 8.99754 5.59758L8.99766 5.59769ZM6.22034 7.19782L0.72644 10.9034C0.584915 10.999 0.5 11.1586 0.5 11.3294V18.0581C0.5 18.3417 0.729993 18.5718 1.01375 18.5718C1.1162 18.5718 1.21615 18.5411 1.30107 18.4839L6.79485 14.7783C6.93637 14.6828 7.02129 14.5231 7.02129 14.3524V7.62369C7.02129 7.33981 6.79129 7.10994 6.50753 7.10994C6.40521 7.10994 6.30513 7.1405 6.22022 7.1977L6.22034 7.19782ZM44.7292 3.65057H54.7857V26.3495H48.7518V8.9866H44.7291V3.65045L44.7292 3.65057ZM59.7748 3.65057H83.5V9.06879H74.6749V26.3497H68.6V9.06879H59.7748V3.65057Z" fill="#FFFFFF"/>
</g>
<defs>
<clipPath id="clip0_2481_1926">
<rect width="83" height="30" fill="white" transform="translate(0.5)"/>
</clipPath>
</defs>
</svg>
