<svg width="138" height="44" viewBox="0 0 138 44" fill="none" xmlns="http://www.w3.org/2000/svg">
<g clip-path="url(#clip0_27_510)">
<path d="M23.6992 43.3202H34.4321C35.6642 38.9321 36.5671 29.5135 37.8706 15.2785C36.2718 19.7346 32.5924 24.7311 32.5924 24.7311C32.5924 24.7311 29.1471 37.6915 23.6992 43.3202Z" fill="white"/>
<path d="M41.2011 0C41.2045 2.60363 40.0878 9.27586 39.1475 11.5668L37.2637 43.3202H41.2656L41.2011 0Z" fill="white"/>
<path d="M49.0585 15.615H52.7142V16.0059C52.429 16.0229 52.2186 16.0399 52.0794 16.0603C51.9402 16.0807 51.8113 16.135 51.6857 16.2268C51.5601 16.3152 51.4956 16.4545 51.4956 16.6415V16.9848C51.723 16.8556 51.9708 16.7706 52.2457 16.7299C52.5207 16.6891 52.7243 16.6687 52.8567 16.6687C53.2233 16.6687 53.5695 16.7333 53.8988 16.8624C54.228 16.9916 54.5132 17.1717 54.7541 17.4063C54.9985 17.6408 55.1886 17.9195 55.3278 18.2424C55.467 18.5653 55.5348 18.912 55.5348 19.2825C55.5348 19.7924 55.4228 20.2716 55.1988 20.7237C54.9748 21.1723 54.6557 21.5326 54.2416 21.8046C53.8275 22.0765 53.3387 22.2124 52.782 22.2124L52.7583 22.1886C52.5648 22.1886 52.334 22.1649 52.059 22.1173C51.7841 22.0697 51.5974 22.0119 51.4922 21.9439V22.4062C51.4922 22.7053 51.5363 22.9194 51.6246 23.0554C51.7128 23.1914 51.835 23.2763 51.9878 23.3103C52.1405 23.3443 52.3815 23.3681 52.7074 23.3817V23.7726H49.0517V23.3817C49.3843 23.3681 49.6287 23.3477 49.7815 23.3103C49.9342 23.2729 50.053 23.1914 50.1413 23.0554C50.2295 22.9194 50.2736 22.7019 50.2736 22.4028V21.9643C50.1684 22.0323 49.9783 22.0901 49.7068 22.1377C49.4352 22.1852 49.201 22.209 49.0075 22.209L48.96 22.2328C48.4067 22.2328 47.9214 22.0969 47.5073 21.825C47.0931 21.553 46.7775 21.1927 46.5602 20.7441C46.343 20.2954 46.2344 19.8162 46.2344 19.3029C46.2344 18.7897 46.3532 18.3614 46.5942 17.9637C46.8318 17.566 47.1576 17.2533 47.5683 17.029C47.9791 16.8046 48.4271 16.6925 48.9125 16.6925C49.4488 16.6925 49.9036 16.7978 50.277 17.0086C50.277 16.9984 50.277 16.9848 50.2668 16.9712C50.2601 16.9542 50.2567 16.944 50.2533 16.9372C50.2431 16.5497 50.148 16.3016 49.9647 16.1928C49.7815 16.0875 49.4794 16.0263 49.0585 16.0127V15.6218V15.615ZM50.277 17.4708C50.0394 17.2737 49.6966 17.1751 49.2553 17.1751C49.0177 17.1751 48.7733 17.2159 48.5256 17.2975C48.1013 17.4776 47.8059 17.719 47.643 18.0181C47.4801 18.3172 47.3918 18.7591 47.3783 19.3471C47.3783 19.3573 47.3749 19.3743 47.3647 19.3981C47.3579 19.4219 47.3545 19.4389 47.3545 19.4457C47.3545 19.8399 47.4156 20.207 47.5378 20.5503C47.66 20.8902 47.8399 21.1656 48.0775 21.3797C48.3151 21.5938 48.5934 21.7026 48.9125 21.7162C48.9295 21.7196 48.9566 21.7264 49.0008 21.7298C49.0449 21.7366 49.0958 21.74 49.1569 21.74C49.6355 21.74 50.0089 21.6686 50.277 21.5224V17.4742V17.4708ZM51.4956 21.4919C51.7637 21.638 52.1269 21.7128 52.5886 21.7128C52.6497 21.7128 52.704 21.7128 52.7549 21.7026C52.8058 21.6924 52.8364 21.6924 52.8567 21.689C53.3353 21.6618 53.7121 21.4341 53.9836 20.999C54.2552 20.5639 54.391 20.0371 54.391 19.4219V19.3233C54.3808 18.9188 54.34 18.5925 54.2722 18.341C54.2009 18.0895 54.0855 17.8821 53.9259 17.7156C53.763 17.549 53.539 17.4029 53.2505 17.2771C52.9993 17.1955 52.7481 17.1547 52.4935 17.1547C52.0692 17.1547 51.7366 17.2533 51.499 17.4471V21.4953L51.4956 21.4919Z" fill="white"/>
<path d="M62.2825 17.7394L58.2433 22.3722C58.2433 22.6713 58.2874 22.8854 58.3756 23.0214C58.4639 23.1574 58.5861 23.2423 58.7388 23.2763C58.8916 23.3103 59.1326 23.3341 59.4584 23.3477V23.7386H55.8027V23.3477C56.1354 23.3341 56.3798 23.3137 56.5325 23.2763C56.6853 23.2423 56.8041 23.1574 56.8923 23.0214C56.9806 22.8854 57.0247 22.6679 57.0247 22.3688V16.9576C57.0247 16.6585 56.9806 16.4443 56.8889 16.3084C56.7973 16.1724 56.6785 16.0874 56.5223 16.0535C56.3696 16.0195 56.1286 15.9957 55.8027 15.9821V15.5912H59.4584V15.9821C59.0511 15.9821 58.7354 16.0399 58.5114 16.152C58.396 16.2132 58.3247 16.3118 58.2908 16.4443C58.2602 16.5769 58.2433 16.7502 58.2433 16.9576V21.638L62.2825 16.9576C62.2825 16.6789 62.2384 16.4681 62.1501 16.3322C62.0619 16.1928 61.9363 16.1044 61.7734 16.0602C61.6104 16.0161 61.3762 15.9923 61.0673 15.9821V15.5912H64.723V15.9821C64.2954 15.9821 63.9797 16.0399 63.7726 16.152C63.6572 16.2132 63.5859 16.3118 63.552 16.4443C63.5214 16.5769 63.5045 16.7502 63.5045 16.9576V22.3688C63.5045 22.6781 63.552 22.899 63.647 23.035C63.7421 23.1709 63.8643 23.2559 64.0136 23.2831C64.163 23.3103 64.4006 23.3307 64.723 23.3443V23.7352H61.0673V23.3443C61.383 23.3341 61.6206 23.3103 61.7802 23.2661C61.9397 23.2253 62.0653 23.1336 62.1501 22.9976C62.2384 22.8616 62.2825 22.6509 62.2825 22.3654V17.7326V17.7394Z" fill="white"/>
<path d="M71.5628 19.6904H67.5235V22.3722C67.5235 22.6713 67.5677 22.8854 67.6559 23.0214C67.7442 23.1574 67.8664 23.2423 68.0191 23.2763C68.1718 23.3103 68.4128 23.3341 68.7387 23.3477V23.7386H65.083V23.3477C65.4157 23.3341 65.66 23.3137 65.8128 23.2763C65.9655 23.2423 66.0843 23.1574 66.1726 23.0214C66.2608 22.8854 66.305 22.6679 66.305 22.3688V16.9576C66.305 16.6585 66.2608 16.4443 66.1692 16.3084C66.0775 16.1724 65.9587 16.0874 65.8026 16.0535C65.6499 16.0195 65.4089 15.9957 65.083 15.9821V15.5912H68.7387V15.9821C68.3314 15.9821 68.0157 16.0399 67.7917 16.152C67.6763 16.2132 67.605 16.3118 67.5711 16.4443C67.5405 16.5769 67.5235 16.7502 67.5235 16.9576V19.1771H71.5628V16.9576C71.5628 16.6789 71.5187 16.4681 71.4304 16.3322C71.3422 16.1928 71.2166 16.1044 71.0536 16.0602C70.8907 16.0161 70.6565 15.9923 70.3476 15.9821V15.5912H73.9999V15.9821C73.5722 15.9821 73.2566 16.0399 73.0495 16.152C72.9341 16.2132 72.8628 16.3118 72.8289 16.4443C72.7949 16.5769 72.7814 16.7502 72.7814 16.9576V22.3688C72.7814 22.6781 72.8289 22.899 72.9239 23.035C73.019 23.1709 73.1412 23.2559 73.2905 23.2831C73.4399 23.3103 73.6775 23.3307 73.9999 23.3443V23.7352H70.3476V23.3443C70.6633 23.3341 70.9009 23.3103 71.0604 23.2661C71.22 23.2253 71.3456 23.1336 71.4304 22.9976C71.5187 22.8616 71.5594 22.6509 71.5594 22.3654V19.6836L71.5628 19.6904Z" fill="white"/>
<path d="M78.8471 15.4722L81.9156 22.5455C82.0412 22.8243 82.1905 23.0282 82.3637 23.1574C82.5368 23.2865 82.7676 23.3477 83.0595 23.3477V23.7386H79.6957V23.3477H79.9673C80.4357 23.3477 80.6733 23.2253 80.6733 22.9806C80.6733 22.8786 80.6393 22.7325 80.5748 22.5421L79.9163 20.9786H76.6781L76.0434 22.5421C75.9789 22.7019 75.945 22.8141 75.945 22.882C75.945 23.1913 76.1962 23.3477 76.6985 23.3477H76.9667V23.7386H74.1426V23.3477C74.516 23.3477 74.7977 23.2933 74.9946 23.1845C75.1914 23.0758 75.351 22.8616 75.4799 22.5455L78.4025 15.4722H78.8437H78.8471ZM79.6753 20.4722L78.6299 17.8889C78.4364 17.3791 78.321 17.0528 78.2871 16.9134C78.2599 16.9678 78.226 17.0664 78.1886 17.2091L76.875 20.4756H79.6753V20.4722Z" fill="white"/>
<path d="M89.7532 19.6904H85.714V22.3722C85.714 22.6713 85.7581 22.8854 85.8463 23.0214C85.9346 23.1574 86.0568 23.2423 86.2095 23.2763C86.3623 23.3103 86.6033 23.3341 86.9291 23.3477V23.7386H83.2734V23.3477C83.6061 23.3341 83.8505 23.3137 84.0032 23.2763C84.156 23.2423 84.2748 23.1574 84.363 23.0214C84.4513 22.8854 84.4954 22.6679 84.4954 22.3688V16.9576C84.4954 16.6585 84.4513 16.4443 84.3596 16.3084C84.268 16.1724 84.1492 16.0874 83.993 16.0535C83.8403 16.0195 83.5993 15.9957 83.2734 15.9821V15.5912H86.9291V15.9821C86.5218 15.9821 86.2061 16.0399 85.9821 16.152C85.8667 16.2132 85.7954 16.3118 85.7615 16.4443C85.7309 16.5769 85.714 16.7502 85.714 16.9576V19.1771H89.7532V16.9576C89.7532 16.6789 89.7091 16.4681 89.6208 16.3322C89.5326 16.1928 89.407 16.1044 89.2441 16.0602C89.0811 16.0161 88.8469 15.9923 88.538 15.9821V15.5912H92.1904V15.9821C91.7627 15.9821 91.447 16.0399 91.2399 16.152C91.1245 16.2132 91.0532 16.3118 91.0193 16.4443C90.9854 16.5769 90.9718 16.7502 90.9718 16.9576V22.3688C90.9718 22.6781 91.0193 22.899 91.1143 23.035C91.2094 23.1709 91.3316 23.2559 91.4809 23.2831C91.6303 23.3103 91.8679 23.3307 92.1904 23.3443V23.7352H88.538V23.3443C88.8537 23.3341 89.0913 23.3103 89.2509 23.2661C89.4104 23.2253 89.536 23.1336 89.6208 22.9976C89.7091 22.8616 89.7498 22.6509 89.7498 22.3654V19.6836L89.7532 19.6904Z" fill="white"/>
<path d="M100.351 15.615L100.473 18.5416H100.083C99.9536 18.0079 99.7669 17.5422 99.5225 17.1378C99.2781 16.7333 98.959 16.4138 98.5653 16.1826C98.1715 15.9515 97.7031 15.8326 97.16 15.8326C96.5287 15.8326 96.0025 16.0161 95.585 16.3832C95.1675 16.7503 94.8621 17.2193 94.672 17.7904C94.4785 18.3614 94.3834 18.9528 94.3834 19.5646C94.3834 20.2275 94.4887 20.8461 94.7059 21.4239C94.9198 22.0017 95.2558 22.4674 95.7106 22.8209C96.1655 23.1744 96.7323 23.3511 97.4078 23.3511C98.0154 23.3511 98.6026 23.1608 99.1627 22.7801C99.7261 22.3994 100.123 21.9236 100.354 21.3491L100.792 21.6924C100.585 22.1581 100.29 22.5626 99.906 22.9059C99.5191 23.2492 99.0812 23.5109 98.589 23.691C98.0969 23.8712 97.5979 23.9629 97.0921 23.9629C96.4981 23.9629 95.9482 23.8576 95.4391 23.6502C94.9299 23.4429 94.4989 23.1506 94.1357 22.7733C93.7725 22.396 93.4907 21.9507 93.2973 21.4341C93.1004 20.9174 93.002 20.3634 93.002 19.7686C93.002 19.1738 93.1004 18.6231 93.2973 18.0963C93.4941 17.5694 93.7759 17.1004 94.1425 16.6959C94.509 16.2914 94.9469 15.9719 95.4595 15.7442C95.972 15.5164 96.5219 15.4009 97.1193 15.4009C98.0697 15.4009 98.9454 15.6762 99.7499 16.2302C99.8246 16.1113 99.9128 15.9107 100.018 15.6218H100.361L100.351 15.615Z" fill="white"/>
<path d="M105.659 23.9595C104.858 23.9595 104.129 23.776 103.47 23.4055C102.812 23.035 102.292 22.5217 101.915 21.8657C101.539 21.2097 101.349 20.4755 101.349 19.6666C101.349 18.8576 101.535 18.1132 101.909 17.4606C102.282 16.808 102.798 16.3016 103.457 15.9379C104.115 15.5742 104.848 15.394 105.659 15.394C106.471 15.394 107.221 15.5742 107.879 15.9379C108.541 16.3016 109.057 16.808 109.434 17.4606C109.807 18.1132 109.997 18.8474 109.997 19.6666C109.997 20.4857 109.807 21.2131 109.431 21.8691C109.05 22.5251 108.531 23.0384 107.866 23.4055C107.2 23.776 106.467 23.9595 105.659 23.9595ZM105.659 23.521C106.365 23.521 106.936 23.3409 107.37 22.9772C107.805 22.6135 108.117 22.1444 108.304 21.5666C108.49 20.9888 108.582 20.3566 108.582 19.67C108.582 19.1567 108.531 18.6741 108.433 18.2186C108.334 17.7631 108.171 17.3519 107.947 16.9882C107.723 16.6211 107.421 16.3288 107.041 16.1146C106.661 15.8971 106.199 15.7883 105.659 15.7883C105.12 15.7883 104.672 15.8971 104.295 16.1146C103.918 16.3322 103.619 16.6211 103.395 16.9882C103.171 17.3553 103.012 17.7665 102.91 18.222C102.808 18.6775 102.761 19.1601 102.761 19.67C102.761 20.36 102.852 20.9956 103.036 21.5734C103.219 22.1512 103.528 22.6203 103.962 22.984C104.393 23.3443 104.96 23.5244 105.659 23.5244V23.521Z" fill="white"/>
<path d="M114.572 19.3233C115.027 19.3437 115.451 19.4354 115.848 19.602C116.246 19.7685 116.565 20.0133 116.812 20.3396C117.057 20.6659 117.182 21.0602 117.182 21.5224C117.182 21.9609 117.074 22.3484 116.857 22.6883C116.639 23.0282 116.347 23.2865 115.977 23.4666C115.607 23.6468 115.203 23.7386 114.769 23.7386H110.628V23.3477C110.961 23.3341 111.205 23.3137 111.358 23.2763C111.51 23.2423 111.629 23.1573 111.718 23.0214C111.806 22.8854 111.846 22.6679 111.846 22.3688V16.9576C111.846 16.6585 111.802 16.4409 111.718 16.305C111.633 16.169 111.51 16.084 111.358 16.05C111.205 16.016 110.964 15.9922 110.628 15.9787V15.5878H114.572C114.946 15.5878 115.302 15.6557 115.635 15.7917C115.967 15.9277 116.235 16.1316 116.439 16.4035C116.643 16.6754 116.741 17.0051 116.741 17.3926C116.741 17.9875 116.541 18.4361 116.137 18.7386C115.733 19.0411 115.214 19.2349 114.569 19.3199L114.572 19.3233ZM113.065 19.1771C113.591 19.1771 114.012 19.1465 114.328 19.0887C114.643 19.031 114.901 18.8848 115.102 18.6571C115.302 18.4293 115.4 18.0724 115.4 17.5932C115.4 17.0663 115.299 16.6686 115.095 16.4035C114.891 16.1384 114.538 16.0058 114.036 16.0058H113.065V19.1771ZM113.065 19.568V22.3722C113.065 22.7359 113.167 22.9806 113.367 23.1097C113.567 23.2389 113.866 23.3001 114.256 23.3001C114.803 23.3001 115.197 23.1199 115.434 22.7596C115.672 22.3994 115.791 21.9303 115.791 21.3457C115.791 20.795 115.672 20.3872 115.431 20.1288C115.19 19.8705 114.891 19.7108 114.531 19.653C114.172 19.5952 113.683 19.5646 113.065 19.5646V19.568Z" fill="white"/>
<path d="M120.441 16.9609V19.1805C120.778 19.1805 121.015 19.1805 121.154 19.1771C121.293 19.1771 121.405 19.1703 121.487 19.1635C121.568 19.1567 121.633 19.1567 121.68 19.1567C122.264 19.1567 122.773 19.2553 123.204 19.449C123.636 19.6462 123.965 19.9215 124.196 20.2784C124.426 20.6353 124.549 21.0499 124.555 21.5224C124.555 21.9609 124.447 22.3484 124.23 22.6883C124.012 23.0282 123.72 23.2865 123.35 23.4666C122.98 23.6468 122.577 23.7385 122.142 23.7385H118.001V23.3443C118.334 23.3307 118.578 23.3103 118.731 23.2729C118.884 23.2389 119.002 23.1539 119.091 23.018C119.179 22.882 119.223 22.6645 119.223 22.3653V16.9541C119.223 16.655 119.179 16.4375 119.091 16.3015C119.002 16.1656 118.884 16.0806 118.731 16.0466C118.578 16.0126 118.334 15.9888 118.001 15.9752V15.5844H121.657V15.9752C121.249 15.9752 120.94 16.033 120.733 16.1452C120.608 16.2064 120.526 16.3049 120.492 16.4375C120.458 16.5701 120.441 16.7434 120.441 16.9507V16.9609ZM120.441 19.5918V22.3687C120.441 22.7324 120.543 22.9772 120.744 23.1063C120.944 23.2355 121.243 23.2967 121.633 23.2967C122.179 23.2967 122.573 23.1165 122.811 22.7596C123.048 22.3993 123.167 21.9303 123.167 21.3456C123.167 20.829 123.065 20.4449 122.862 20.1866C122.658 19.9283 122.393 19.7651 122.071 19.6971C121.745 19.6258 121.334 19.5918 120.832 19.5918H120.441ZM128.622 23.7623H124.97V23.3681C125.302 23.3579 125.543 23.3341 125.696 23.2967C125.849 23.2627 125.967 23.1777 126.056 23.0417C126.144 22.9058 126.185 22.6883 126.185 22.3891V16.9779C126.185 16.6788 126.141 16.4647 126.056 16.3287C125.967 16.1928 125.849 16.1078 125.696 16.0738C125.543 16.0398 125.302 16.016 124.97 16.0024V15.6115H128.622V16.0024C128.215 16.0024 127.906 16.0602 127.699 16.1724C127.57 16.237 127.488 16.3355 127.454 16.4715C127.42 16.604 127.403 16.774 127.403 16.9813V22.3925C127.403 22.6917 127.447 22.9058 127.539 23.0417C127.631 23.1777 127.749 23.2627 127.906 23.2967C128.058 23.3307 128.299 23.3545 128.625 23.3681V23.7623H128.622Z" fill="white"/>
<path d="M135.563 17.7394L131.524 22.3722C131.524 22.6714 131.568 22.8855 131.656 23.0215C131.744 23.1574 131.866 23.2424 132.019 23.2764C132.172 23.3104 132.413 23.3342 132.739 23.3478V23.7386H129.083V23.3478C129.416 23.3342 129.66 23.3138 129.813 23.2764C129.966 23.2424 130.084 23.1574 130.173 23.0215C130.261 22.8855 130.305 22.668 130.305 22.3688V16.9576C130.305 16.6585 130.261 16.4444 130.169 16.3084C130.078 16.1725 129.959 16.0875 129.803 16.0535C129.65 16.0195 129.409 15.9957 129.083 15.9821V15.5912H132.739V15.9821C132.331 15.9821 132.016 16.0399 131.792 16.1521C131.676 16.2133 131.605 16.3118 131.571 16.4444C131.541 16.577 131.524 16.7503 131.524 16.9576V21.6381L135.563 16.9576C135.563 16.6789 135.519 16.4682 135.43 16.3322C135.342 16.1929 135.217 16.1045 135.054 16.0603C134.891 16.0161 134.656 15.9923 134.348 15.9821V15.5912H138V15.9821C137.572 15.9821 137.257 16.0399 137.05 16.1521C136.934 16.2133 136.863 16.3118 136.829 16.4444C136.795 16.577 136.781 16.7503 136.781 16.9576V22.3688C136.781 22.6782 136.829 22.8991 136.924 23.035C137.019 23.171 137.141 23.256 137.291 23.2832C137.44 23.3104 137.677 23.3308 138 23.3444V23.7352H134.348V23.3444C134.663 23.3342 134.901 23.3104 135.06 23.2662C135.22 23.2254 135.346 23.1336 135.43 22.9977C135.519 22.8617 135.559 22.651 135.559 22.3654V17.7326L135.563 17.7394ZM133.713 14.0821C133.957 14.0821 134.195 14.0481 134.432 13.9767C134.667 13.9053 134.785 13.7864 134.785 13.6164C134.738 13.3717 134.714 13.2085 134.714 13.127C134.714 12.9706 134.772 12.8347 134.884 12.7157C134.999 12.5967 135.135 12.5322 135.295 12.5186H135.346C135.447 12.5186 135.556 12.5423 135.665 12.5899C135.773 12.6375 135.855 12.6851 135.906 12.7361C136.018 12.8687 136.075 13.0488 136.075 13.2765C136.069 13.6164 135.923 13.8782 135.644 14.0685C135.366 14.2588 135.047 14.3846 134.687 14.4492C134.327 14.5138 133.995 14.5444 133.693 14.5444C133.39 14.5444 133.068 14.5138 132.712 14.4492C132.359 14.3846 132.046 14.2588 131.771 14.0685C131.5 13.8816 131.357 13.6164 131.35 13.2765C131.35 13.0488 131.408 12.8721 131.524 12.7361C131.669 12.5899 131.846 12.5186 132.06 12.5186H132.131C132.294 12.5322 132.433 12.5967 132.545 12.7123C132.661 12.8313 132.715 12.9672 132.715 13.1236C132.715 13.2221 132.691 13.3853 132.64 13.613C132.64 13.783 132.759 13.9019 132.993 13.9733C133.227 14.0447 133.468 14.0787 133.713 14.0787V14.0821Z" fill="white"/>
<path d="M50.711 35.8696C50.711 35.8696 50.6262 36.0191 50.4361 36.3182C50.3309 36.4338 50.2256 36.5324 50.1136 36.6174C50.0016 36.7023 49.9201 36.7601 49.8624 36.7975C49.6893 36.8825 49.4721 36.9233 49.2141 36.9233C48.9562 36.9233 48.7389 36.8655 48.5658 36.7465C48.5183 36.7227 48.447 36.6411 48.3554 36.5018C48.2637 36.3624 48.2162 36.2197 48.2162 36.0701C48.2162 35.9206 48.2739 35.771 48.3893 35.6215C48.4877 35.4719 48.6405 35.3971 48.8407 35.3971C48.9052 35.3971 49.0071 35.4141 49.1394 35.4447C49.1293 35.4447 49.1836 35.4889 49.3024 35.5807C49.4212 35.6724 49.5434 35.7166 49.6622 35.7166C49.6859 35.7166 49.7199 35.72 49.7708 35.7302C49.8217 35.7404 49.859 35.7438 49.8896 35.7438C50.0084 35.7438 50.1136 35.6928 50.212 35.5909C50.2765 35.5127 50.3648 35.3835 50.4768 35.2C50.5888 35.0164 50.6499 34.9043 50.6635 34.8669L47.2692 29.714C47.1605 29.5848 47.0621 29.4659 46.9705 29.3571C46.8788 29.2483 46.7974 29.1634 46.7227 29.0988C46.648 29.0342 46.5597 28.9832 46.4579 28.9458C46.3561 28.9084 46.2373 28.8914 46.0947 28.8914V28.4904H49.54V28.8914H49.265C48.783 28.8914 48.5386 29.0172 48.5386 29.2653C48.5386 29.3605 48.5726 29.5101 48.6405 29.714L51.2881 33.8166L53.2839 29.714C53.3518 29.5406 53.3858 29.4149 53.3858 29.3401C53.3858 29.1566 53.3111 29.0342 53.1617 28.9764C53.0124 28.9186 52.8189 28.8914 52.5881 28.8914H52.3369V28.4904H55.2085V28.8914H55.1067C54.5195 28.9594 54.102 29.2347 53.8576 29.714L50.711 35.8662V35.8696Z" fill="white"/>
<path d="M62.0992 32.6915H57.9548V35.4413C57.9548 35.7472 57.9989 35.9682 58.0905 36.1075C58.1822 36.2469 58.3078 36.3353 58.4639 36.3693C58.62 36.4032 58.8678 36.4304 59.2005 36.4406V36.8417H55.4531V36.4406C55.796 36.427 56.0437 36.4032 56.1999 36.3693C56.356 36.3353 56.4782 36.2469 56.5699 36.1075C56.6581 35.9682 56.7056 35.7472 56.7056 35.4379V29.8874C56.7056 29.5815 56.6581 29.3605 56.5665 29.2212C56.4748 29.0818 56.3492 28.9934 56.1931 28.9594C56.037 28.9254 55.7892 28.8983 55.4565 28.8881V28.487H59.2039V28.8881C58.7864 28.8881 58.4639 28.9458 58.2331 29.0614C58.1143 29.126 58.0396 29.2246 58.0091 29.3605C57.9751 29.4965 57.9615 29.6732 57.9615 29.8874V32.1613H62.106V29.8874C62.106 29.6019 62.0619 29.3877 61.9702 29.245C61.8786 29.1022 61.7496 29.0104 61.5833 28.9662C61.417 28.9221 61.176 28.8949 60.8603 28.8847V28.4836H64.6076V28.8847C64.1698 28.8847 63.8439 28.9424 63.6335 29.058C63.5147 29.1226 63.44 29.2212 63.4094 29.3571C63.3755 29.4931 63.3619 29.6698 63.3619 29.884V35.4345C63.3619 35.7506 63.4094 35.9784 63.5079 36.1177C63.6063 36.2571 63.7319 36.3421 63.8813 36.3727C64.034 36.4032 64.275 36.4236 64.611 36.4338V36.8349H60.8637V36.4338C61.1862 36.4236 61.4305 36.3964 61.5969 36.3557C61.7632 36.3115 61.8888 36.2197 61.977 36.0803C62.0653 35.941 62.1128 35.7234 62.1128 35.4345V32.6847L62.0992 32.6915Z" fill="white"/>
<path d="M71.6139 30.6929L67.4694 35.4413C67.4694 35.7472 67.5135 35.9682 67.6052 36.1075C67.6968 36.2469 67.8224 36.3353 67.9786 36.3693C68.1347 36.4032 68.3825 36.4304 68.7151 36.4406V36.8417H64.9678V36.4406C65.3106 36.427 65.5584 36.4032 65.7145 36.3693C65.8707 36.3353 65.9929 36.2469 66.0845 36.1075C66.1728 35.9682 66.2203 35.7472 66.2203 35.4379V29.8874C66.2203 29.5815 66.1728 29.3605 66.0811 29.2212C65.9895 29.0818 65.8639 28.9934 65.7077 28.9594C65.5516 28.9254 65.3038 28.8983 64.9712 28.8881V28.487H68.7185V28.8881C68.301 28.8881 67.9785 28.9458 67.7477 29.0614C67.6289 29.126 67.5543 29.2246 67.5203 29.3605C67.4864 29.4965 67.4728 29.6732 67.4728 29.8874V34.6867L71.6173 29.8874C71.6173 29.6019 71.5731 29.3877 71.4815 29.245C71.3899 29.1022 71.2609 29.0104 71.0945 28.9662C70.9282 28.9221 70.6872 28.8949 70.3716 28.8847V28.4836H74.1189V28.8847C73.681 28.8847 73.3552 28.9424 73.1447 29.058C73.0259 29.1226 72.9512 29.2212 72.9173 29.3571C72.8834 29.4931 72.8698 29.6698 72.8698 29.884V35.4345C72.8698 35.7506 72.9173 35.9784 73.0157 36.1177C73.1142 36.2571 73.2398 36.3421 73.3925 36.3727C73.5453 36.4032 73.7863 36.4236 74.1223 36.4338V36.8349H70.3749V36.4338C70.6974 36.4236 70.9418 36.3964 71.1081 36.3557C71.2744 36.3115 71.4 36.2197 71.4883 36.0803C71.5765 35.941 71.6241 35.7234 71.6241 35.4345V30.6861L71.6139 30.6929Z" fill="white"/>
<path d="M78.5285 32.3177C78.9935 32.3381 79.4314 32.4332 79.8353 32.6032C80.2392 32.7731 80.5719 33.0247 80.823 33.3578C81.0742 33.6909 81.1998 34.0953 81.1998 34.5712C81.1998 35.0199 81.0878 35.421 80.8672 35.7677C80.6465 36.1143 80.3444 36.3829 79.9677 36.5664C79.5909 36.75 79.1768 36.8451 78.7287 36.8451H74.4824V36.4441C74.8252 36.4305 75.073 36.4067 75.2292 36.3727C75.3853 36.3387 75.5075 36.2503 75.5992 36.1109C75.6908 35.9716 75.7349 35.7507 75.7349 35.4413V29.8908C75.7349 29.5849 75.6908 29.3605 75.5992 29.2212C75.5109 29.0818 75.3887 28.9968 75.2292 28.9595C75.073 28.9255 74.8219 28.8983 74.4824 28.8881V28.487H78.5285C78.912 28.487 79.2752 28.555 79.618 28.6943C79.9609 28.8337 80.2358 29.041 80.4429 29.3232C80.6499 29.6019 80.7552 29.9418 80.7552 30.3395C80.7552 30.9513 80.5481 31.4101 80.1374 31.7194C79.7267 32.0288 79.1904 32.2259 78.5319 32.3143L78.5285 32.3177ZM76.984 32.1681C77.5237 32.1681 77.9548 32.1375 78.2807 32.0763C78.6065 32.0152 78.8713 31.869 79.075 31.6345C79.2786 31.3999 79.3804 31.0362 79.3804 30.5434C79.3804 30.003 79.2752 29.5951 79.0682 29.3232C78.8611 29.0512 78.4979 28.9153 77.982 28.9153H76.984V32.1647V32.1681ZM76.984 32.5692V35.4447C76.984 35.8186 77.0859 36.0702 77.2929 36.1993C77.5 36.3319 77.8021 36.3965 78.206 36.3965C78.7661 36.3965 79.17 36.2129 79.4144 35.8424C79.6588 35.4753 79.781 34.9893 79.781 34.3911C79.781 33.8268 79.6588 33.4087 79.411 33.1436C79.1666 32.8785 78.8577 32.7154 78.4877 32.6542C78.1178 32.593 77.6188 32.5624 76.984 32.5624V32.5692Z" fill="white"/>
<path d="M88.195 28.4904L88.4191 30.5434H88.0457C87.9235 30.0336 87.7334 29.6325 87.4788 29.347C87.2209 29.0615 86.8543 28.9153 86.3757 28.9153H84.5529V32.1919H85.3506C86.0872 32.1919 86.4707 31.8078 86.5013 31.0397H86.9018V33.8642H86.5013C86.447 33.4122 86.3519 33.0927 86.2127 32.9125C86.077 32.7324 85.7885 32.6406 85.3506 32.6406H84.5529V35.3156C84.5529 35.7303 84.6649 36.0158 84.8924 36.1756C85.1198 36.3353 85.4456 36.4169 85.8767 36.4169C86.5081 36.4169 87.007 36.3557 87.3804 36.2333C87.7538 36.111 88.066 35.8289 88.324 35.3904C88.5548 34.9247 88.677 34.5508 88.6974 34.2619H89.0708L88.8977 36.8384H82.0547V36.4373C82.3975 36.4237 82.6453 36.3999 82.8014 36.3659C82.9576 36.3319 83.0798 36.2435 83.1714 36.1042C83.2631 35.9648 83.3072 35.7439 83.3072 35.4346V29.884C83.3072 29.5781 83.2631 29.3538 83.1714 29.2144C83.0832 29.075 82.961 28.9901 82.8014 28.9527C82.6453 28.9187 82.3941 28.8915 82.0547 28.8813V28.4802H88.2018L88.195 28.4904Z" fill="white"/>
<path d="M91.8639 32.8682V35.4413C91.8639 35.7472 91.9081 35.9681 91.9997 36.1075C92.0914 36.2468 92.2169 36.3352 92.3731 36.3692C92.5292 36.4032 92.777 36.427 93.1097 36.4406V36.8417H89.3623V36.4406C89.7051 36.427 89.9529 36.4032 90.1091 36.3692C90.2652 36.3352 90.3874 36.2468 90.479 36.1075C90.5707 35.9681 90.6148 35.7472 90.6148 35.4379V29.8873C90.6148 29.5814 90.5673 29.3605 90.4756 29.2211C90.384 29.0818 90.2584 28.9934 90.1023 28.9594C89.9461 28.9254 89.6983 28.8982 89.3657 28.888V28.4869H92.2882C93.0146 28.4869 93.6256 28.5277 94.1144 28.6059C94.6065 28.6841 95.0207 28.888 95.3669 29.2143C95.7097 29.5406 95.8828 30.0403 95.8828 30.7133C95.8828 31.1008 95.7912 31.4611 95.6079 31.7908C95.4246 32.1205 95.1666 32.3788 94.834 32.5623C94.4538 32.7629 93.8632 32.8648 93.0621 32.8648H91.8639V32.8682ZM91.8639 32.4944H92.8109C93.3608 32.4944 93.7851 32.3312 94.0838 32.0015C94.3825 31.6718 94.5319 31.2299 94.5319 30.6691C94.5319 30.2272 94.464 29.8703 94.3248 29.6018C94.1857 29.3333 93.9786 29.1395 93.7003 29.0206C93.4219 28.9016 93.0655 28.8438 92.631 28.8438C92.536 28.8438 92.4036 28.8472 92.2339 28.8574C92.0642 28.8642 91.9386 28.871 91.8571 28.871V32.4978L91.8639 32.4944Z" fill="white"/>
<path d="M104.152 28.5175L104.277 31.5189H103.877C103.744 30.9716 103.554 30.4924 103.303 30.0777C103.052 29.663 102.726 29.3367 102.322 29.0988C101.918 28.8608 101.44 28.7419 100.879 28.7419C100.231 28.7419 99.6914 28.9288 99.2671 29.3061C98.8395 29.68 98.5272 30.1627 98.3303 30.7507C98.1334 31.3353 98.035 31.9437 98.035 32.5691C98.035 33.2456 98.1436 33.8812 98.3642 34.476C98.5849 35.0674 98.9277 35.5467 99.3927 35.907C99.8578 36.2673 100.438 36.4474 101.131 36.4474C101.755 36.4474 102.356 36.2537 102.93 35.8628C103.503 35.4719 103.914 34.9824 104.152 34.3944L104.6 34.7445C104.389 35.2204 104.084 35.635 103.69 35.9885C103.293 36.342 102.845 36.6106 102.339 36.7941C101.833 36.9776 101.321 37.0728 100.805 37.0728C100.194 37.0728 99.6303 36.9675 99.111 36.7533C98.5917 36.5392 98.147 36.2401 97.7736 35.8526C97.4003 35.4651 97.1151 35.0096 96.9115 34.4794C96.7078 33.9491 96.6094 33.3815 96.6094 32.7731C96.6094 32.1647 96.7112 31.6004 96.9115 31.0566C97.1117 30.5162 97.4003 30.0369 97.777 29.6188C98.1538 29.2041 98.6018 28.8778 99.1246 28.6433C99.6473 28.4088 100.214 28.2932 100.829 28.2932C101.803 28.2932 102.702 28.5753 103.527 29.143C103.602 29.0206 103.693 28.8133 103.802 28.5209H104.152V28.5175Z" fill="white"/>
<path d="M111.538 30.6929L107.393 35.4413C107.393 35.7472 107.437 35.9682 107.529 36.1075C107.621 36.2469 107.746 36.3353 107.902 36.3693C108.059 36.4032 108.306 36.4304 108.639 36.4406V36.8417H104.892V36.4406C105.234 36.427 105.482 36.4032 105.638 36.3693C105.794 36.3353 105.917 36.2469 106.008 36.1075C106.1 35.9682 106.144 35.7472 106.144 35.4379V29.8874C106.144 29.5815 106.097 29.3605 106.005 29.2212C105.913 29.0818 105.788 28.9934 105.632 28.9594C105.475 28.9254 105.228 28.8983 104.895 28.8881V28.487H108.642V28.8881C108.225 28.8881 107.902 28.9458 107.672 29.0614C107.553 29.126 107.478 29.2246 107.444 29.3605C107.41 29.4965 107.397 29.6732 107.397 29.8874V34.6867L111.541 29.8874C111.541 29.6019 111.497 29.3877 111.405 29.245C111.314 29.1022 111.185 29.0104 111.018 28.9662C110.852 28.9221 110.611 28.8949 110.295 28.8847V28.4836H114.043V28.8847C113.605 28.8847 113.279 28.9424 113.069 29.058C112.95 29.1226 112.875 29.2212 112.841 29.3571C112.807 29.4931 112.794 29.6698 112.794 29.884V35.4345C112.794 35.7506 112.841 35.9784 112.94 36.1177C113.038 36.2571 113.164 36.3421 113.313 36.3727C113.466 36.4032 113.707 36.4236 114.043 36.4338V36.8349H110.295V36.4338C110.618 36.4236 110.862 36.3964 111.029 36.3557C111.191 36.3115 111.32 36.2197 111.409 36.0803C111.497 35.941 111.544 35.7234 111.544 35.4345V30.6861L111.538 30.6929Z" fill="white"/>
<path d="M120.105 36.8451H116.385V36.444C116.725 36.4338 116.972 36.41 117.135 36.3692C117.295 36.3285 117.42 36.2401 117.505 36.1007C117.59 35.9614 117.634 35.7438 117.634 35.4413V28.9152H116.232C115.75 28.9152 115.391 29.0512 115.156 29.3231C114.922 29.595 114.732 29.9927 114.586 30.5162H114.186L114.41 28.4938H122.077L122.301 30.5162H121.928C121.819 30.1729 121.704 29.8908 121.585 29.663C121.466 29.4353 121.297 29.2551 121.083 29.1192C120.869 28.9832 120.594 28.9152 120.255 28.9152H118.86V35.4413C118.86 35.7438 118.907 35.9648 119.002 36.1075C119.097 36.2503 119.223 36.3353 119.379 36.3726C119.535 36.4066 119.779 36.4338 120.105 36.444V36.8451Z" fill="white"/>
<path d="M128.645 28.4904L128.869 30.5434H128.496C128.374 30.0336 128.184 29.6325 127.929 29.347C127.671 29.0615 127.304 28.9153 126.826 28.9153H125.003V32.1919H125.801C126.537 32.1919 126.921 31.8078 126.951 31.0397H127.352V33.8642H126.951C126.897 33.4122 126.799 33.0927 126.663 32.9125C126.527 32.7324 126.239 32.6406 125.801 32.6406H125.003V35.3156C125.003 35.7303 125.115 36.0158 125.343 36.1756C125.567 36.3353 125.896 36.4169 126.327 36.4169C126.958 36.4169 127.457 36.3557 127.831 36.2333C128.204 36.111 128.516 35.8289 128.774 35.3904C129.005 34.9247 129.127 34.5508 129.148 34.2619H129.521L129.348 36.8384H122.505V36.4373C122.848 36.4237 123.095 36.3999 123.252 36.3659C123.408 36.3319 123.53 36.2435 123.622 36.1042C123.713 35.9648 123.757 35.7439 123.757 35.4346V29.884C123.757 29.5781 123.713 29.3538 123.622 29.2144C123.533 29.075 123.408 28.9901 123.252 28.9527C123.095 28.9187 122.848 28.8915 122.505 28.8813V28.4802H128.652L128.645 28.4904Z" fill="white"/>
<path d="M135.512 36.8451H131.791V36.444C132.131 36.4338 132.379 36.41 132.541 36.3692C132.701 36.3285 132.827 36.2401 132.911 36.1007C132.996 35.9614 133.04 35.7438 133.04 35.4413V28.9152H131.639C131.157 28.9152 130.797 29.0512 130.563 29.3231C130.328 29.595 130.138 29.9927 129.992 30.5162H129.592L129.816 28.4938H137.484L137.708 30.5162H137.334C137.226 30.1729 137.11 29.8908 136.991 29.663C136.873 29.4353 136.703 29.2551 136.489 29.1192C136.275 28.9832 136 28.9152 135.661 28.9152H134.266V35.4413C134.266 35.7438 134.313 35.9648 134.408 36.1075C134.503 36.2503 134.629 36.3353 134.785 36.3726C134.941 36.4066 135.186 36.4338 135.512 36.444V36.8451Z" fill="white"/>
<path d="M48.3829 43.3168H48.0163V40.8423H46.6517V43.3168H46.2852V40.5466H48.3829V43.3168Z" fill="white"/>
<path d="M49.4105 42.2325V43.3168H49.0439V40.5466H50.0656C50.3677 40.5466 50.6053 40.6248 50.7784 40.7778C50.9516 40.9307 51.0364 41.1381 51.0364 41.393C51.0364 41.6615 50.9516 41.8688 50.7852 42.015C50.6189 42.1612 50.3779 42.2325 50.0622 42.2325H49.4105ZM49.4105 41.9334H50.0656C50.2591 41.9334 50.4119 41.8858 50.5137 41.7941C50.6189 41.7023 50.6698 41.5697 50.6698 41.393C50.6698 41.2162 50.6189 41.0939 50.5137 40.9953C50.4085 40.8967 50.2659 40.8457 50.086 40.8423H49.4105V41.93V41.9334Z" fill="white"/>
<path d="M53.2467 40.5466H53.6133V43.3168H53.2467V41.1822L51.8822 43.3168H51.5156V40.5466H51.8822V42.6812L53.2467 40.5466Z" fill="white"/>
<path d="M57.3536 43.3168H56.987V40.8423H55.6224V43.3168H55.2559V40.5466H57.3536V43.3168Z" fill="white"/>
<path d="M58.3822 42.2325V43.3168H58.0156V40.5466H59.0373C59.3394 40.5466 59.577 40.6248 59.7501 40.7778C59.9232 40.9307 60.0081 41.1381 60.0081 41.393C60.0081 41.6615 59.9232 41.8688 59.7569 42.015C59.5906 42.1612 59.3496 42.2325 59.0339 42.2325H58.3822ZM58.3822 41.9334H59.0373C59.2308 41.9334 59.3835 41.8858 59.4854 41.7941C59.5906 41.7023 59.6415 41.5697 59.6415 41.393C59.6415 41.2162 59.5906 41.0939 59.4854 40.9953C59.3801 40.8967 59.2376 40.8457 59.0577 40.8423H58.3822V41.93V41.9334Z" fill="white"/>
<path d="M61.7394 42.5928H60.5786L60.3172 43.3168H59.9404L60.9961 40.5466H61.3151L62.3742 43.3168H62.0008L61.736 42.5928H61.7394ZM60.6906 42.2937H61.6308L61.159 40.9987L60.6906 42.2937Z" fill="white"/>
<path d="M62.751 43.3168V40.5466H63.6573C63.956 40.5466 64.1834 40.6078 64.3361 40.7336C64.4889 40.8593 64.5636 41.0429 64.5636 41.2842C64.5636 41.4134 64.5262 41.5289 64.4549 41.6275C64.3803 41.7261 64.2818 41.8043 64.1528 41.8586C64.3022 41.8994 64.421 41.981 64.5058 42.0966C64.5941 42.2155 64.6348 42.3549 64.6348 42.518C64.6348 42.7662 64.5534 42.9633 64.3938 43.1027C64.2343 43.2454 64.0069 43.3168 63.7116 43.3168H62.751ZM63.1176 41.7261H63.6675C63.827 41.7261 63.956 41.6853 64.051 41.6071C64.146 41.5255 64.1936 41.4168 64.1936 41.2808C64.1936 41.1279 64.1494 41.0157 64.0612 40.9477C63.9729 40.8797 63.8372 40.8423 63.6573 40.8423H63.1176V41.7261ZM63.1176 42.0184V43.0143H63.7218C63.8915 43.0143 64.0272 42.9701 64.1223 42.8817C64.2207 42.7934 64.2682 42.671 64.2682 42.518C64.2682 42.1849 64.0883 42.0184 63.7252 42.0184H63.1176Z" fill="white"/>
<path d="M66.9225 40.5466H67.2891V43.3168H66.9225V41.1822L65.558 43.3168H65.1914V40.5466H65.558V42.6812L66.9225 40.5466Z" fill="white"/>
<path d="M69.8078 40.8457H68.9185V43.3202H68.5553V40.8457H67.666V40.5466H69.8078V40.8457Z" fill="white"/>
<path d="M71.7831 42.0388H70.5849V43.0211H71.9799V43.3202H70.2217V40.55H71.9596V40.8492H70.5849V41.7431H71.7831V42.0422V42.0388Z" fill="white"/>
<path d="M74.5263 40.5466V43.3168H74.1597V40.8423H73.1686L73.1176 41.9402C73.0973 42.3073 73.0599 42.586 73.0056 42.7696C72.9479 42.9565 72.8665 43.0925 72.7578 43.1774C72.6492 43.2658 72.5033 43.31 72.32 43.3134H72.2012V43.0143H72.2758C72.3946 43.0007 72.4829 42.9633 72.5474 42.8953C72.6119 42.8273 72.6594 42.7186 72.6933 42.5724C72.7273 42.4229 72.751 42.1951 72.7646 41.8858L72.8223 40.5432H74.5263V40.5466Z" fill="white"/>
<path d="M75.5409 41.6785H76.23C76.5185 41.6819 76.7459 41.7567 76.9055 41.9028C77.0684 42.049 77.1498 42.2427 77.1498 42.4942C77.1498 42.7458 77.0684 42.9429 76.9055 43.0925C76.7425 43.242 76.5185 43.3168 76.2368 43.3236H75.1777V40.5534H75.5443V41.6853L75.5409 41.6785ZM75.5409 41.9776V43.0211H76.2096C76.3895 43.0211 76.5321 42.9735 76.6339 42.8749C76.7357 42.7763 76.7866 42.6472 76.7866 42.4874C76.7866 42.3277 76.7391 42.2087 76.6407 42.1169C76.5423 42.0252 76.4065 41.981 76.2266 41.9776H75.5443H75.5409Z" fill="white"/>
<path d="M79.6643 42.4398C79.6304 42.7321 79.5218 42.9598 79.3385 43.1196C79.1552 43.2794 78.9142 43.3575 78.6121 43.3575C78.2862 43.3575 78.0215 43.2386 77.8246 43.004C77.6277 42.7695 77.5293 42.4568 77.5293 42.0625V41.7974C77.5293 41.5391 77.5734 41.3147 77.6685 41.1176C77.7601 40.9239 77.8891 40.7709 78.0588 40.6689C78.2285 40.5636 78.422 40.5126 78.6426 40.5126C78.9379 40.5126 79.1722 40.5941 79.3487 40.7607C79.5252 40.9239 79.6304 41.1516 79.6575 41.4439H79.291C79.2604 41.223 79.1891 41.0632 79.0839 40.9612C78.9787 40.8627 78.8293 40.8117 78.6392 40.8117C78.405 40.8117 78.2217 40.8967 78.0894 41.07C77.957 41.2434 77.8925 41.4881 77.8925 41.8076V42.0761C77.8925 42.3786 77.9536 42.6166 78.0792 42.7933C78.2048 42.97 78.3813 43.0584 78.6053 43.0584C78.809 43.0584 78.9651 43.0108 79.0737 42.9191C79.1823 42.8273 79.2536 42.6675 79.291 42.4398H79.6575H79.6643Z" fill="white"/>
<path d="M82.0207 40.8457H81.1314V43.3202H80.7682V40.8457H79.8789V40.5466H82.0207V40.8457Z" fill="white"/>
<path d="M82.4316 43.3168V40.5466H83.3379C83.6366 40.5466 83.864 40.6078 84.0168 40.7336C84.1695 40.8593 84.2442 41.0429 84.2442 41.2842C84.2442 41.4134 84.2069 41.5289 84.1322 41.6275C84.0575 41.7261 83.9591 41.8043 83.8335 41.8586C83.9828 41.8994 84.1017 41.981 84.1865 42.0966C84.2714 42.2155 84.3155 42.3549 84.3155 42.518C84.3155 42.7662 84.234 42.9633 84.0745 43.1027C83.915 43.2454 83.6875 43.3168 83.3922 43.3168H82.4316ZM82.7982 41.7261H83.3481C83.5076 41.7261 83.6366 41.6853 83.7317 41.6071C83.8267 41.5255 83.8742 41.4168 83.8742 41.2808C83.8742 41.1279 83.8301 41.0157 83.7419 40.9477C83.6536 40.8797 83.5178 40.8423 83.3379 40.8423H82.7982V41.7261ZM82.7982 42.0184V43.0143H83.4024C83.5721 43.0143 83.7079 42.9701 83.8029 42.8817C83.9014 42.7934 83.9489 42.671 83.9489 42.518C83.9489 42.1849 83.769 42.0184 83.4058 42.0184H82.7982Z" fill="white"/>
<path d="M86.4198 42.0388H85.2216V43.0211H86.6167V43.3202H84.8584V40.55H86.5963V40.8492H85.2216V41.7431H86.4198V42.0422V42.0388Z" fill="white"/>
<path d="M88.3988 42.2325V43.3168H88.0322V40.5466H89.0539C89.356 40.5466 89.5936 40.6248 89.7667 40.7778C89.9398 40.9307 90.0247 41.1381 90.0247 41.393C90.0247 41.6615 89.9398 41.8688 89.7735 42.015C89.6038 42.1612 89.3662 42.2325 89.0505 42.2325H88.3988ZM88.3988 41.9334H89.0539C89.2508 41.9334 89.4001 41.8858 89.502 41.7941C89.6072 41.7023 89.6581 41.5697 89.6581 41.393C89.6581 41.2162 89.6072 41.0939 89.502 40.9953C89.3967 40.8967 89.2542 40.8457 89.0743 40.8423H88.3988V41.93V41.9334Z" fill="white"/>
<path d="M92.6173 42.0218C92.6173 42.2937 92.5732 42.5317 92.4815 42.7322C92.3899 42.9361 92.2609 43.0891 92.0946 43.1945C91.9283 43.2998 91.7314 43.3542 91.5074 43.3542C91.2833 43.3542 91.0967 43.2998 90.9269 43.1945C90.7572 43.0857 90.6282 42.9327 90.5332 42.7356C90.4382 42.5385 90.3906 42.3073 90.3906 42.0456V41.8451C90.3906 41.5799 90.4381 41.342 90.5298 41.1381C90.6214 40.9341 90.7538 40.7778 90.9235 40.669C91.0933 40.5602 91.2867 40.5059 91.504 40.5059C91.7212 40.5059 91.9215 40.5602 92.0912 40.6656C92.2609 40.7744 92.3899 40.9273 92.4815 41.1313C92.5732 41.3352 92.6173 41.5731 92.6173 41.8417V42.0184V42.0218ZM92.2541 41.8417C92.2541 41.512 92.1896 41.2604 92.0572 41.0837C91.9249 40.9069 91.7416 40.8186 91.504 40.8186C91.2664 40.8186 91.0933 40.9069 90.9609 41.0837C90.8285 41.2604 90.7606 41.5018 90.7572 41.8145V42.0184C90.7572 42.3379 90.8251 42.586 90.9575 42.7696C91.0899 42.9531 91.2766 43.0415 91.5108 43.0415C91.745 43.0415 91.9283 42.9565 92.0572 42.7832C92.1862 42.6098 92.2541 42.3651 92.2575 42.0422V41.8383L92.2541 41.8417Z" fill="white"/>
<path d="M95.201 42.4399C95.167 42.7322 95.0584 42.9599 94.8785 43.1197C94.6952 43.2794 94.4542 43.3576 94.1521 43.3576C93.8263 43.3576 93.5615 43.2386 93.3646 43.0041C93.1678 42.7696 93.0693 42.4569 93.0693 42.0626V41.7975C93.0693 41.5391 93.1169 41.3148 93.2085 41.1177C93.3002 40.9239 93.4291 40.771 93.5989 40.669C93.7686 40.5636 93.962 40.5126 94.1827 40.5126C94.478 40.5126 94.7122 40.5942 94.8887 40.7608C95.0652 40.9239 95.1704 41.1516 95.1976 41.444H94.831C94.8004 41.223 94.7292 41.0633 94.6239 40.9613C94.5187 40.8627 94.3694 40.8117 94.1793 40.8117C93.9451 40.8117 93.7618 40.8967 93.6294 41.0701C93.497 41.2434 93.4291 41.4881 93.4291 41.8077V42.0762C93.4291 42.3787 93.4936 42.6166 93.6158 42.7934C93.7414 42.9701 93.9179 43.0585 94.1419 43.0585C94.3456 43.0585 94.5017 43.0109 94.6104 42.9191C94.719 42.8273 94.7903 42.6676 94.8276 42.4399H95.1942H95.201Z" fill="white"/>
<path d="M97.7361 42.4399C97.7022 42.7322 97.5936 42.9599 97.4137 43.1197C97.2304 43.2794 96.9894 43.3576 96.6873 43.3576C96.3614 43.3576 96.0967 43.2386 95.8998 43.0041C95.7029 42.7696 95.6045 42.4569 95.6045 42.0626V41.7975C95.6045 41.5391 95.652 41.3148 95.7437 41.1177C95.8353 40.9239 95.9643 40.771 96.134 40.669C96.3037 40.5636 96.4972 40.5126 96.7178 40.5126C97.0131 40.5126 97.2473 40.5942 97.4238 40.7608C97.6004 40.9239 97.7056 41.1516 97.7327 41.444H97.3662C97.3356 41.223 97.2643 41.0633 97.1591 40.9613C97.0539 40.8627 96.9045 40.8117 96.7144 40.8117C96.4802 40.8117 96.2969 40.8967 96.1646 41.0701C96.0322 41.2434 95.9643 41.4881 95.9643 41.8077V42.0762C95.9643 42.3787 96.0288 42.6166 96.151 42.7934C96.2766 42.9701 96.4531 43.0585 96.6771 43.0585C96.8808 43.0585 97.0369 43.0109 97.1455 42.9191C97.2541 42.8273 97.3254 42.6676 97.3628 42.4399H97.7293H97.7361Z" fill="white"/>
<path d="M99.9801 40.5466H100.347V43.3168H99.9801V41.1822L98.6156 43.3168H98.249V40.5466H98.6156V42.6812L99.9801 40.5466Z" fill="white"/>
<path d="M102.753 40.5466H103.119V43.3168H102.753V41.1823L101.388 43.3168H101.021V40.5466H101.388V42.6812L102.753 40.5466ZM102.651 39.8567C102.651 40.0096 102.6 40.1354 102.495 40.2271C102.389 40.3223 102.254 40.3665 102.084 40.3665C101.914 40.3665 101.775 40.3189 101.67 40.2237C101.565 40.1286 101.514 40.0062 101.514 39.8533H101.802C101.802 39.9416 101.826 40.013 101.873 40.0606C101.921 40.1082 101.992 40.1354 102.084 40.1354C102.176 40.1354 102.24 40.1116 102.291 40.0606C102.342 40.0096 102.366 39.9416 102.366 39.8499H102.651V39.8567Z" fill="white"/>
<path d="M105.822 42.4398C105.788 42.7321 105.68 42.9598 105.5 43.1196C105.316 43.2794 105.075 43.3575 104.773 43.3575C104.447 43.3575 104.183 43.2386 103.986 43.004C103.789 42.7695 103.69 42.4568 103.69 42.0625V41.7974C103.69 41.5391 103.738 41.3147 103.83 41.1176C103.921 40.9239 104.05 40.7709 104.22 40.6689C104.39 40.5636 104.583 40.5126 104.804 40.5126C105.099 40.5126 105.333 40.5941 105.51 40.7607C105.686 40.9239 105.792 41.1516 105.819 41.4439H105.452C105.422 41.223 105.35 41.0632 105.245 40.9612C105.14 40.8627 104.99 40.8117 104.8 40.8117C104.566 40.8117 104.383 40.8967 104.25 41.07C104.118 41.2434 104.05 41.4881 104.05 41.8076V42.0761C104.05 42.3786 104.115 42.6166 104.237 42.7933C104.363 42.97 104.539 43.0584 104.763 43.0584C104.967 43.0584 105.123 43.0108 105.231 42.9191C105.34 42.8273 105.411 42.6675 105.449 42.4398H105.815H105.822Z" fill="white"/>
<path d="M107.037 42.0728H106.701V43.3168H106.334V40.5466H106.701V41.7703H106.986L107.953 40.5466H108.408L107.352 41.8892L108.486 43.3168H108.038L107.037 42.0728Z" fill="white"/>
<path d="M110.89 42.0218C110.89 42.2937 110.846 42.5317 110.754 42.7322C110.662 42.9361 110.533 43.0891 110.367 43.1945C110.201 43.2998 110.004 43.3542 109.78 43.3542C109.556 43.3542 109.369 43.2998 109.199 43.1945C109.03 43.0857 108.901 42.9327 108.806 42.7356C108.711 42.5385 108.663 42.3073 108.663 42.0456V41.8451C108.663 41.5799 108.711 41.342 108.802 41.1381C108.894 40.9341 109.026 40.7778 109.196 40.669C109.366 40.5602 109.559 40.5059 109.776 40.5059C109.994 40.5059 110.194 40.5602 110.364 40.6656C110.533 40.7744 110.662 40.9273 110.754 41.1313C110.846 41.3352 110.89 41.5731 110.89 41.8417V42.0184V42.0218ZM110.527 41.8417C110.527 41.512 110.462 41.2604 110.33 41.0837C110.197 40.9069 110.014 40.8186 109.776 40.8186C109.539 40.8186 109.366 40.9069 109.233 41.0837C109.101 41.2604 109.033 41.5018 109.03 41.8145V42.0184C109.03 42.3379 109.098 42.586 109.23 42.7696C109.362 42.9531 109.549 43.0415 109.783 43.0415C110.017 43.0415 110.201 42.9565 110.33 42.7832C110.459 42.6098 110.527 42.3651 110.53 42.0422V41.8383L110.527 41.8417Z" fill="white"/>
<path d="M113.184 40.5466H113.551V43.3168H113.184V41.1823L111.82 43.3168H111.453V40.5466H111.82V42.6812L113.184 40.5466ZM113.082 39.8567C113.082 40.0096 113.031 40.1354 112.926 40.2271C112.821 40.3223 112.685 40.3665 112.516 40.3665C112.346 40.3665 112.207 40.3189 112.101 40.2237C111.996 40.1286 111.945 40.0062 111.945 39.8533H112.234C112.234 39.9416 112.258 40.013 112.305 40.0606C112.353 40.1082 112.424 40.1354 112.516 40.1354C112.607 40.1354 112.672 40.1116 112.723 40.0606C112.774 40.0096 112.797 39.9416 112.797 39.8499H113.082V39.8567Z" fill="white"/>
<path d="M116.544 40.8253H116.602C116.813 40.8253 117.003 40.8763 117.176 40.9715C117.349 41.0667 117.481 41.2026 117.576 41.3692C117.671 41.5391 117.719 41.7295 117.719 41.9368C117.719 42.1441 117.671 42.3379 117.573 42.5112C117.478 42.6812 117.342 42.8171 117.172 42.9123C117.003 43.0075 116.813 43.0585 116.606 43.0585H116.538V43.4324H116.185V43.0585H116.13C115.92 43.0585 115.726 43.0109 115.553 42.9123C115.38 42.8171 115.244 42.6812 115.149 42.5112C115.054 42.3413 115.007 42.1509 115.007 41.9368C115.007 41.7227 115.054 41.5323 115.149 41.3624C115.244 41.1924 115.38 41.0599 115.553 40.9613C115.726 40.8627 115.92 40.8151 116.13 40.8151H116.185V40.4243H116.538V40.8151L116.544 40.8253ZM116.137 41.1143C115.9 41.1143 115.709 41.189 115.57 41.3352C115.431 41.4813 115.363 41.6853 115.363 41.9436C115.363 42.2019 115.431 42.4093 115.57 42.552C115.709 42.6982 115.9 42.7696 116.141 42.7696H116.191V41.1109H116.137V41.1143ZM116.544 41.1143V42.773H116.599C116.84 42.773 117.03 42.6982 117.166 42.5486C117.301 42.3991 117.369 42.1951 117.369 41.9402C117.369 41.6853 117.301 41.4847 117.166 41.3352C117.03 41.1856 116.836 41.1109 116.592 41.1109H116.548L116.544 41.1143Z" fill="white"/>
<path d="M119.745 42.0388H118.547V43.0211H119.942V43.3202H118.184V40.55H119.921V40.8492H118.547V41.7431H119.745V42.0422V42.0388Z" fill="white"/>
<path d="M122.885 43.9966H122.522V43.3168H120.537V43.9966H120.17V43.0177H120.394C120.513 42.8817 120.608 42.7016 120.679 42.4773C120.75 42.2495 120.794 42.0014 120.811 41.7329L120.873 40.5466H122.529V43.0177H122.889V43.9966H122.885ZM120.811 43.0177H122.162V40.8423H121.226L121.185 41.6581C121.168 41.9776 121.127 42.2495 121.059 42.4739C120.991 42.6982 120.91 42.8783 120.811 43.0177Z" fill="white"/>
<path d="M124.885 42.0388H123.686V43.0211H125.082V43.3202H123.323V40.55H125.061V40.8492H123.686V41.7431H124.885V42.0422V42.0388Z" fill="white"/>
<path d="M125.899 42.2325V43.3168H125.532V40.5466H126.554C126.856 40.5466 127.094 40.6248 127.267 40.7778C127.44 40.9307 127.525 41.1381 127.525 41.393C127.525 41.6615 127.44 41.8688 127.274 42.015C127.104 42.1612 126.866 42.2325 126.551 42.2325H125.899ZM125.899 41.9334H126.554C126.751 41.9334 126.9 41.8858 127.002 41.7941C127.107 41.7023 127.158 41.5697 127.158 41.393C127.158 41.2162 127.107 41.0939 127.002 40.9953C126.897 40.8967 126.754 40.8457 126.574 40.8423H125.899V41.93V41.9334Z" fill="white"/>
<path d="M129.256 42.5928H128.095L127.834 43.3168H127.457L128.513 40.5466H128.832L129.891 43.3168H129.517L129.253 42.5928H129.256ZM128.207 42.2937H129.147L128.676 40.9987L128.207 42.2937Z" fill="white"/>
<path d="M130.278 40.5466H130.645V43.0177H132.009V40.5466H132.376V43.0109H132.668L132.634 43.9864H132.305V43.3168H130.282V40.5466H130.278Z" fill="white"/>
<path d="M134.86 40.5466H135.227V43.3168H134.86V41.1822L133.495 43.3168H133.129V40.5466H133.495V42.6812L134.86 40.5466Z" fill="white"/>
<path d="M137.633 40.5466H138V43.3168H137.633V41.1822L136.269 43.3168H135.902V40.5466H136.269V42.6812L137.633 40.5466Z" fill="white"/>
<path d="M29.5029 28.2971C28.6608 31.4109 24.0791 39.3398 19.6465 43.1194H0.0234375C10.7799 41.6069 21.6111 37.0323 29.5029 28.2971Z" fill="white"/>
</g>
<defs>
<clipPath id="clip0_27_510">
<rect width="138" height="44" fill="white"/>
</clipPath>
</defs>
</svg>
