<svg width="256" height="256" viewBox="0 0 256 256" fill="none" xmlns="http://www.w3.org/2000/svg">
<rect width="256" height="256" rx="64" fill="black"/>
<path d="M121.625 189.56C121.634 189.92 121.549 190.276 121.376 190.591C121.204 190.907 120.951 191.172 120.644 191.359L71.5927 224.06C71.0962 224.387 70.52 224.572 69.926 224.596C69.332 224.62 68.7427 224.482 68.2214 224.196C67.7001 223.91 67.2667 223.488 66.9676 222.974C66.6685 222.46 66.5152 221.875 66.524 221.28V68.0764C66.5226 67.4124 66.6861 66.7584 67.0001 66.1734C67.314 65.5883 67.7685 65.0904 68.3226 64.7245L116.148 32.5958C116.645 32.246 117.23 32.0417 117.836 32.0057C118.443 31.9698 119.048 32.1037 119.583 32.3923C120.118 32.681 120.562 33.1131 120.865 33.64C121.168 34.1669 121.318 34.7679 121.298 35.3754L121.625 189.56Z" fill="white"/>
<path d="M55.1594 126.205C55.995 125.631 56.6777 124.862 57.1479 123.965C57.6182 123.067 57.8617 122.068 57.8572 121.054V78.2979C57.8727 77.6837 57.7149 77.0776 57.4017 76.5489C57.0886 76.0203 56.6329 75.5905 56.0868 75.3089C55.5407 75.0274 54.9263 74.9053 54.3141 74.9568C53.7018 75.0083 53.1165 75.2313 52.6251 75.6001L17.635 98.8178C17.1344 99.2233 16.7287 99.7335 16.4462 100.313C16.1637 100.892 16.0114 101.525 16 102.17V146.234C16.0046 146.808 16.1567 147.372 16.4417 147.87C16.7266 148.369 17.1348 148.786 17.6272 149.081C18.1196 149.377 18.6797 149.541 19.2536 149.558C19.8276 149.574 20.3963 149.443 20.9051 149.177L55.1594 126.205Z" fill="white"/>
<path d="M237.219 126.206C238.065 125.637 238.76 124.87 239.244 123.973C239.728 123.076 239.987 122.075 239.999 121.055V78.2989C239.985 77.6966 239.809 77.1092 239.49 76.5984C239.17 76.0875 238.719 75.6722 238.184 75.3962C237.648 75.1201 237.048 74.9934 236.447 75.0295C235.846 75.0655 235.265 75.263 234.767 75.6011L200.104 98.8188C199.579 99.2081 199.151 99.7129 198.854 100.294C198.556 100.876 198.396 101.518 198.387 102.171V146.235C198.384 146.821 198.534 147.397 198.824 147.907C199.113 148.416 199.53 148.841 200.035 149.139C200.54 149.437 201.113 149.597 201.699 149.604C202.285 149.611 202.862 149.464 203.374 149.178L237.219 126.206Z" fill="white"/>
<path d="M189.399 189.56C189.402 189.91 189.322 190.255 189.166 190.568C189.009 190.881 188.781 191.152 188.499 191.359L139.448 224.06C138.951 224.387 138.375 224.572 137.781 224.596C137.187 224.62 136.598 224.482 136.077 224.196C135.555 223.91 135.122 223.488 134.823 222.974C134.524 222.46 134.37 221.875 134.379 221.28V68.0764C134.378 67.4124 134.541 66.7584 134.855 66.1734C135.169 65.5883 135.624 65.0904 136.178 64.7245L184.003 32.5958C184.5 32.246 185.085 32.0417 185.692 32.0057C186.298 31.9698 186.903 32.1037 187.438 32.3923C187.973 32.681 188.417 33.1131 188.72 33.64C189.023 34.1669 189.173 34.7679 189.153 35.3754L189.399 189.56Z" fill="white"/>
</svg>
