<svg width="326" height="48" viewBox="0 0 326 48" fill="none" xmlns="http://www.w3.org/2000/svg">
<foreignObject x="-24" y="-24" width="373" height="96"><div xmlns="http://www.w3.org/1999/xhtml" style="backdrop-filter:blur(12px);clip-path:url(#bgblur_0_120_5456_clip_path);height:100%;width:100%"></div></foreignObject><g filter="url(#filter0_i_120_5456)" data-figma-bg-blur-radius="24">
<path d="M0 15V8C0 3.58172 3.58172 0 8 0H18.5099H76.1921H87.8146H317C321.418 0 325 3.58172 325 8V23.3207C325 25.33 324.244 27.2656 322.882 28.743L307.507 45.4223C305.992 47.0653 303.859 48 301.625 48H7.99998C3.58171 48 0 44.4183 0 40L0 15Z" fill="#D9D9D9" fill-opacity="0.01"/>
<path d="M8 1H317C320.866 1 324 4.13401 324 8V23.3203C324 24.9685 323.419 26.5607 322.364 27.8184L322.146 28.0654L306.771 44.7441C305.446 46.1817 303.58 46.9999 301.625 47H8C4.13401 47 1 43.866 1 40V8C1 4.13401 4.13401 1 8 1Z" stroke="#9236F9" stroke-width="2"/>
</g>
<defs>
<filter id="filter0_i_120_5456" x="-24" y="-24" width="373" height="96" filterUnits="userSpaceOnUse" color-interpolation-filters="sRGB">
<feFlood flood-opacity="0" result="BackgroundImageFix"/>
<feBlend mode="normal" in="SourceGraphic" in2="BackgroundImageFix" result="shape"/>
<feColorMatrix in="SourceAlpha" type="matrix" values="0 0 0 0 0 0 0 0 0 0 0 0 0 0 0 0 0 0 127 0" result="hardAlpha"/>
<feOffset/>
<feGaussianBlur stdDeviation="20"/>
<feComposite in2="hardAlpha" operator="arithmetic" k2="-1" k3="1"/>
<feColorMatrix type="matrix" values="0 0 0 0 1 0 0 0 0 0 0 0 0 0 1 0 0 0 0.6 0"/>
<feBlend mode="normal" in2="shape" result="effect1_innerShadow_120_5456"/>
</filter>
<clipPath id="bgblur_0_120_5456_clip_path" transform="translate(24 24)"><path d="M0 15V8C0 3.58172 3.58172 0 8 0H18.5099H76.1921H87.8146H317C321.418 0 325 3.58172 325 8V23.3207C325 25.33 324.244 27.2656 322.882 28.743L307.507 45.4223C305.992 47.0653 303.859 48 301.625 48H7.99998C3.58171 48 0 44.4183 0 40L0 15Z"/>
</clipPath></defs>
</svg>
